<?xml version="1.0" encoding="utf-8"?>
<!-- Generator: Adobe Illustrator 26.0.1, SVG Export Plug-In . SVG Version: 6.00 Build 0)  -->
<svg version="1.1" id="Layer_1" xmlns="http://www.w3.org/2000/svg" xmlns:xlink="http://www.w3.org/1999/xlink" x="0px" y="0px"
	 viewBox="0 0 539.74 177.7" style="enable-background:new 0 0 539.74 177.7;" xml:space="preserve">
<style type="text/css">
	.st0{fill-rule:evenodd;clip-rule:evenodd;fill:url(#SVGID_1_);}
	.st1{fill-rule:evenodd;clip-rule:evenodd;fill:url(#SVGID_00000179630341050193613490000006973071402097075841_);}
	.st2{fill-rule:evenodd;clip-rule:evenodd;fill:url(#SVGID_00000015327676083212426550000015301662775870256828_);}
	.st3{fill-rule:evenodd;clip-rule:evenodd;fill:url(#SVGID_00000171720962207234286230000012473127044218608543_);}
	.st4{fill-rule:evenodd;clip-rule:evenodd;fill:url(#SVGID_00000168118857897947665560000017792346767557644716_);}
	.st5{fill-rule:evenodd;clip-rule:evenodd;fill:url(#SVGID_00000171700000676815641840000001997917165239560581_);}
	.st6{fill-rule:evenodd;clip-rule:evenodd;fill:url(#SVGID_00000037695032071123683530000006257287039756778938_);}
	.st7{fill-rule:evenodd;clip-rule:evenodd;fill:url(#SVGID_00000045579797811856110790000017215268146443570856_);}
	.st8{fill-rule:evenodd;clip-rule:evenodd;fill:url(#SVGID_00000089544264123973137820000000985752145999211910_);}
	.st9{fill-rule:evenodd;clip-rule:evenodd;fill:url(#SVGID_00000119080399877952381920000016237101667636191912_);}
	.st10{fill-rule:evenodd;clip-rule:evenodd;fill:url(#SVGID_00000057134975009145422840000015818140247696117658_);}
	.st11{fill-rule:evenodd;clip-rule:evenodd;fill:url(#SVGID_00000091735183174650814600000011573194400665929642_);}
	.st12{fill-rule:evenodd;clip-rule:evenodd;fill:url(#SVGID_00000018946673410886894920000003225300562995113607_);}
</style>
<g>
	<g>
		<g>
			<linearGradient id="SVGID_1_" gradientUnits="userSpaceOnUse" x1="365.845" y1="140.6345" x2="443.7972" y2="140.6345">
				<stop  offset="0.0335" style="stop-color:#3AAA35"/>
				<stop  offset="1" style="stop-color:#006633"/>
			</linearGradient>
			<path class="st0" d="M423.61,173.03h20.13v-17.42c0-0.04,0-0.08,0-0.11c0.24-3.47-0.35-6.89-1.65-10.01
				c-1.3-3.12-3.31-5.95-5.93-8.23c-2.07-1.79-4.41-3.16-6.92-4.08c-2.53-0.92-5.21-1.38-7.92-1.35c-2.81,0.04-5.42-0.2-7.97-0.75
				c-2.55-0.55-5.03-1.4-7.58-2.6c-0.31-0.14-0.61-0.29-0.92-0.44c-0.03-0.01-0.06-0.03-0.1-0.05c-1.01-0.49-1.99-1.02-2.96-1.57
				c-0.43-0.24-0.85-0.49-1.27-0.74c-0.02-0.01-0.03-0.02-0.05-0.03c-0.84-0.51-1.67-1.04-2.48-1.58c-2.2-1.48-4.55-2.34-6.74-2.25
				c-1.9,0.08-3.71,0.88-5.22,2.63c-0.05,0.06-0.08,0.12-0.1,0.18c-0.01,0.06-0.01,0.13,0.01,0.2c0.02,0.07,0.05,0.14,0.09,0.18
				c0.04,0.05,0.1,0.09,0.17,0.12c3.29,1.31,6.4,3,9.25,5.04c2.86,2.04,5.47,4.43,7.77,7.12c0.3,0.36,0.26,0.89-0.09,1.19
				c-0.36,0.3-0.89,0.26-1.2-0.09c-2.21-2.59-4.72-4.88-7.47-6.84c-2.75-1.97-5.74-3.6-8.9-4.85c-0.33-0.13-0.6-0.32-0.82-0.57
				c-0.22-0.25-0.38-0.55-0.46-0.89c-0.08-0.34-0.08-0.68-0.01-1c0.06-0.26,0.18-0.51,0.34-0.74c-2.11-1.85-4.08-3.83-5.93-5.93
				c-2.04-2.33-3.93-4.8-5.63-7.39c-0.91-0.89-2.02-1.48-3.2-1.77c-1.22-0.3-2.52-0.26-3.75,0.14c-0.07,0.02-0.12,0.05-0.16,0.08
				c-0.04,0.04-0.07,0.08-0.1,0.15c-0.03,0.06-0.04,0.12-0.04,0.17c0,0.05,0.01,0.11,0.04,0.18c4.68,10.58,11.53,19.86,19.95,27.35
				c8.45,7.52,18.48,13.24,29.48,16.64c2.45,0.76,4.49,2.2,5.94,4.09c1.46,1.89,2.32,4.23,2.43,6.79c0.11,2.64,0.1,5.27-0.02,7.91
				C423.66,172.3,423.64,172.66,423.61,173.03z"/>
			
				<linearGradient id="SVGID_00000115480071411127171250000004538436368976711336_" gradientUnits="userSpaceOnUse" x1="453.587" y1="140.6345" x2="531.5391" y2="140.6345">
				<stop  offset="0" style="stop-color:#006633"/>
				<stop  offset="0.9665" style="stop-color:#3AAA35"/>
			</linearGradient>
			<path style="fill-rule:evenodd;clip-rule:evenodd;fill:url(#SVGID_00000115480071411127171250000004538436368976711336_);" d="
				M473.77,173.03h-20.13v-17.42c0-0.04,0-0.08,0-0.11c-0.24-3.47,0.35-6.89,1.65-10.01c1.3-3.12,3.31-5.95,5.93-8.23
				c2.07-1.79,4.41-3.16,6.92-4.08c2.53-0.92,5.21-1.38,7.92-1.35c2.81,0.04,5.42-0.2,7.97-0.75c2.55-0.55,5.03-1.4,7.58-2.6
				c0.31-0.14,0.61-0.29,0.92-0.44c0.03-0.01,0.06-0.03,0.1-0.05c1.01-0.49,1.99-1.02,2.96-1.57c0.43-0.24,0.85-0.49,1.27-0.74
				c0.02-0.01,0.03-0.02,0.05-0.03c0.84-0.51,1.67-1.04,2.48-1.58c2.2-1.48,4.55-2.34,6.74-2.25c1.9,0.08,3.71,0.88,5.22,2.63
				c0.05,0.06,0.08,0.12,0.1,0.18c0.01,0.06,0.01,0.13-0.01,0.2c-0.02,0.07-0.05,0.14-0.09,0.18c-0.04,0.05-0.1,0.09-0.17,0.12
				c-3.29,1.31-6.4,3-9.25,5.04c-2.86,2.04-5.47,4.43-7.77,7.12c-0.3,0.36-0.26,0.89,0.09,1.19c0.36,0.3,0.89,0.26,1.2-0.09
				c2.21-2.59,4.72-4.88,7.47-6.84c2.75-1.97,5.74-3.6,8.9-4.85c0.33-0.13,0.6-0.32,0.82-0.57c0.22-0.25,0.38-0.55,0.46-0.89
				c0.08-0.34,0.08-0.68,0.01-1c-0.06-0.26-0.18-0.51-0.34-0.74c2.11-1.85,4.08-3.83,5.93-5.93c2.04-2.33,3.93-4.8,5.63-7.39
				c0.91-0.89,2.02-1.48,3.2-1.77c1.22-0.3,2.52-0.26,3.75,0.14c0.07,0.02,0.12,0.05,0.16,0.08c0.04,0.04,0.07,0.08,0.1,0.15
				c0.03,0.06,0.04,0.12,0.04,0.17c0,0.05-0.01,0.11-0.04,0.18c-4.68,10.58-11.53,19.86-19.95,27.35
				c-8.45,7.52-18.48,13.24-29.48,16.64c-2.45,0.76-4.49,2.2-5.94,4.09c-1.46,1.89-2.32,4.23-2.43,6.79
				c-0.11,2.64-0.1,5.27,0.02,7.91C473.73,172.3,473.75,172.66,473.77,173.03z"/>
		</g>
		<g>
			<g>
				
					<radialGradient id="SVGID_00000047061215651668662670000010658576650951264174_" cx="449.6715" cy="76.5994" r="120.9336" gradientUnits="userSpaceOnUse">
					<stop  offset="0" style="stop-color:#95C11F"/>
					<stop  offset="0.1913" style="stop-color:#7EBA28"/>
					<stop  offset="0.4931" style="stop-color:#5DB130"/>
					<stop  offset="0.7709" style="stop-color:#45AC34"/>
					<stop  offset="1" style="stop-color:#3AAA35"/>
				</radialGradient>
				<path style="fill-rule:evenodd;clip-rule:evenodd;fill:url(#SVGID_00000047061215651668662670000010658576650951264174_);" d="
					M454.94,32.62c-2.93-6.1-6.03-10.68-6.43-11.1c-0.32,0.54-5,6.75-7.25,13.7c-2.15,6.66-3.44,15.39,2.66,19.16
					c0.25-0.68,4.96-11.17,4.96-11.17c0.13,0.21,5.41,10.69,5.8,11.14C460.01,47.03,457.76,38.5,454.94,32.62z"/>
				<g>
					
						<radialGradient id="SVGID_00000118364535166079203290000008194174719292005054_" cx="449.6715" cy="76.5993" r="120.9337" gradientUnits="userSpaceOnUse">
						<stop  offset="0" style="stop-color:#95C11F"/>
						<stop  offset="0.1913" style="stop-color:#7EBA28"/>
						<stop  offset="0.4931" style="stop-color:#5DB130"/>
						<stop  offset="0.7709" style="stop-color:#45AC34"/>
						<stop  offset="1" style="stop-color:#3AAA35"/>
					</radialGradient>
					<path style="fill-rule:evenodd;clip-rule:evenodd;fill:url(#SVGID_00000118364535166079203290000008194174719292005054_);" d="
						M500.14,98.11c5.18-2.49,9.07-5.12,9.43-5.46c-0.46-0.27-5.73-4.25-11.63-6.15c-5.66-1.83-13.07-2.92-16.27,2.26
						c0.58,0.21,9.49,4.21,9.48,4.21c-0.18,0.11-9.08,4.6-9.46,4.92C487.91,102.41,495.15,100.51,500.14,98.11z"/>
					<g>
						
							<radialGradient id="SVGID_00000116213740084376442460000006613744111811402155_" cx="449.6716" cy="76.5995" r="120.9333" gradientUnits="userSpaceOnUse">
							<stop  offset="0" style="stop-color:#95C11F"/>
							<stop  offset="0.1913" style="stop-color:#7EBA28"/>
							<stop  offset="0.4931" style="stop-color:#5DB130"/>
							<stop  offset="0.7709" style="stop-color:#45AC34"/>
							<stop  offset="1" style="stop-color:#3AAA35"/>
						</radialGradient>
						
							<path style="fill-rule:evenodd;clip-rule:evenodd;fill:url(#SVGID_00000116213740084376442460000006613744111811402155_);" d="
							M397.24,87.5c-5.18,2.49-9.06,5.12-9.43,5.46c0.46,0.27,5.73,4.25,11.63,6.15c5.66,1.83,13.06,2.92,16.26-2.26
							c-0.58-0.21-9.49-4.21-9.48-4.21c0.18-0.11,9.08-4.6,9.46-4.92C409.48,83.2,402.23,85.11,397.24,87.5z"/>
						<g>
							
								<radialGradient id="SVGID_00000114783400219507683560000003787150169425743001_" cx="449.6723" cy="76.5998" r="120.9318" gradientUnits="userSpaceOnUse">
								<stop  offset="0" style="stop-color:#95C11F"/>
								<stop  offset="0.1913" style="stop-color:#7EBA28"/>
								<stop  offset="0.4931" style="stop-color:#5DB130"/>
								<stop  offset="0.7709" style="stop-color:#45AC34"/>
								<stop  offset="1" style="stop-color:#3AAA35"/>
							</radialGradient>
							
								<path style="fill-rule:evenodd;clip-rule:evenodd;fill:url(#SVGID_00000114783400219507683560000003787150169425743001_);" d="
								M514.83,64.69c1.62-4.61,2.37-8.53,2.39-8.95c-0.44,0.11-6,0.89-10.69,3.29c-4.5,2.3-9.61,6.1-8.42,11.14
								c0.47-0.22,8.23-3.17,8.23-3.17c-0.04,0.17-2.69,8.22-2.73,8.64C510.07,74.63,513.28,69.13,514.83,64.69z"/>
							
								<radialGradient id="SVGID_00000041998275008887166130000015391309139288566969_" cx="449.6718" cy="76.5995" r="120.9338" gradientUnits="userSpaceOnUse">
								<stop  offset="0" style="stop-color:#95C11F"/>
								<stop  offset="0.1913" style="stop-color:#7EBA28"/>
								<stop  offset="0.4931" style="stop-color:#5DB130"/>
								<stop  offset="0.7709" style="stop-color:#45AC34"/>
								<stop  offset="1" style="stop-color:#3AAA35"/>
							</radialGradient>
							
								<path style="fill-rule:evenodd;clip-rule:evenodd;fill:url(#SVGID_00000041998275008887166130000015391309139288566969_);" d="
								M389.11,58.43c-4.61-1.62-8.53-2.37-8.95-2.39c0.11,0.44,0.89,6,3.29,10.69c2.3,4.5,6.1,9.61,11.14,8.42
								c-0.22-0.47-3.17-8.23-3.17-8.23c0.17,0.04,8.22,2.69,8.64,2.73C399.05,63.2,393.55,59.99,389.11,58.43z"/>
						</g>
						
							<radialGradient id="SVGID_00000051369996720330765300000001761369180423496093_" cx="449.6717" cy="76.5993" r="120.9346" gradientUnits="userSpaceOnUse">
							<stop  offset="0" style="stop-color:#95C11F"/>
							<stop  offset="0.1913" style="stop-color:#7EBA28"/>
							<stop  offset="0.4931" style="stop-color:#5DB130"/>
							<stop  offset="0.7709" style="stop-color:#45AC34"/>
							<stop  offset="1" style="stop-color:#3AAA35"/>
						</radialGradient>
						
							<path style="fill-rule:evenodd;clip-rule:evenodd;fill:url(#SVGID_00000051369996720330765300000001761369180423496093_);" d="
							M409.71,109.04c-1.98,3.79-3.13,7.09-3.2,7.45c0.4-0.04,5.31-0.01,9.67-1.5c4.19-1.42,9.09-4.07,8.7-8.58
							c-0.44,0.13-7.53,1.71-7.53,1.7c0.06-0.15,3.37-6.78,3.45-7.14C415.1,101.04,411.62,105.39,409.71,109.04z"/>
						<g>
							
								<radialGradient id="SVGID_00000160184459793620032300000000301966812821876906_" cx="449.6715" cy="76.5996" r="120.9338" gradientUnits="userSpaceOnUse">
								<stop  offset="0" style="stop-color:#95C11F"/>
								<stop  offset="0.1913" style="stop-color:#7EBA28"/>
								<stop  offset="0.4931" style="stop-color:#5DB130"/>
								<stop  offset="0.7709" style="stop-color:#45AC34"/>
								<stop  offset="1" style="stop-color:#3AAA35"/>
							</radialGradient>
							
								<path style="fill-rule:evenodd;clip-rule:evenodd;fill:url(#SVGID_00000160184459793620032300000000301966812821876906_);" d="
								M496.04,54.03c2.76-7.89,4.05-14.58,4.08-15.3c-0.75,0.19-10.25,1.52-18.28,5.63c-7.69,3.93-16.42,10.43-14.39,19.03
								c0.81-0.38,14.07-5.42,14.07-5.42c-0.07,0.3-4.6,14.05-4.66,14.77C487.88,71.02,493.37,61.62,496.04,54.03z"/>
							
								<radialGradient id="SVGID_00000162348982765530901450000016758322130687758468_" cx="449.6717" cy="76.5998" r="120.9338" gradientUnits="userSpaceOnUse">
								<stop  offset="0" style="stop-color:#95C11F"/>
								<stop  offset="0.1913" style="stop-color:#7EBA28"/>
								<stop  offset="0.4931" style="stop-color:#5DB130"/>
								<stop  offset="0.7709" style="stop-color:#45AC34"/>
								<stop  offset="1" style="stop-color:#3AAA35"/>
							</radialGradient>
							
								<path style="fill-rule:evenodd;clip-rule:evenodd;fill:url(#SVGID_00000162348982765530901450000016758322130687758468_);" d="
								M412.56,43.34c-7.88-2.77-14.58-4.05-15.3-4.08c0.19,0.75,1.52,10.25,5.63,18.28c3.93,7.69,10.43,16.42,19.03,14.39
								c-0.38-0.81-5.42-14.07-5.42-14.07c0.3,0.07,14.05,4.6,14.77,4.66C429.56,51.49,420.15,46,412.56,43.34z"/>
						</g>
					</g>
				</g>
			</g>
			<g>
				<g>
					
						<radialGradient id="SVGID_00000000213547772751081900000015221414818820988034_" cx="450.8318" cy="90.2836" r="96.0455" gradientUnits="userSpaceOnUse">
						<stop  offset="0" style="stop-color:#B17F4A"/>
						<stop  offset="0.1421" style="stop-color:#A06D3A"/>
						<stop  offset="0.3844" style="stop-color:#875726"/>
						<stop  offset="0.6148" style="stop-color:#76471A"/>
						<stop  offset="0.8259" style="stop-color:#6C3F13"/>
						<stop  offset="1" style="stop-color:#683C11"/>
					</radialGradient>
					<path style="fill-rule:evenodd;clip-rule:evenodd;fill:url(#SVGID_00000000213547772751081900000015221414818820988034_);" d="
						M445.37,95.68c-6.9-11.76-18.46-14.49-28.1-17.53c-1.19-0.37-3.8-0.63-4.79-1.45c23.29,19.52,32.86,29.34,38.82,55.15
						C452.32,136.29,453.8,110.05,445.37,95.68z"/>
					
						<radialGradient id="SVGID_00000009564541610839917760000005668341195533694851_" cx="622.497" cy="131.2258" r="0.1396" fx="622.6366" fy="131.2246" gradientUnits="userSpaceOnUse">
						<stop  offset="0" style="stop-color:#B17F4A"/>
						<stop  offset="0" style="stop-color:#A06D3A"/>
						<stop  offset="0" style="stop-color:#875726"/>
						<stop  offset="0" style="stop-color:#76471A"/>
						<stop  offset="0" style="stop-color:#6C3F13"/>
						<stop  offset="0" style="stop-color:#683C11"/>
						<stop  offset="0.7714" style="stop-color:#88562C"/>
						<stop  offset="1" style="stop-color:#936037"/>
					</radialGradient>
					<path style="fill-rule:evenodd;clip-rule:evenodd;fill:url(#SVGID_00000009564541610839917760000005668341195533694851_);" d="
						M460.06,91.04c5.21-8.88,13.94-10.95,21.23-13.24c0.9-0.28,2.87-0.48,3.62-1.09c-17.74,14.87-24.84,22.27-29.32,41.65
						C454.81,121.71,453.69,101.9,460.06,91.04z"/>
				</g>
				
					<radialGradient id="SVGID_00000178180737139225268600000002756075835746971570_" cx="450.8319" cy="90.2835" r="96.045" gradientUnits="userSpaceOnUse">
					<stop  offset="0" style="stop-color:#683C11"/>
					<stop  offset="0.1913" style="stop-color:#75461B"/>
					<stop  offset="0.4931" style="stop-color:#855429"/>
					<stop  offset="0.7709" style="stop-color:#8F5C33"/>
					<stop  offset="1" style="stop-color:#936037"/>
				</radialGradient>
				<path style="fill-rule:evenodd;clip-rule:evenodd;fill:url(#SVGID_00000178180737139225268600000002756075835746971570_);" d="
					M456.49,76.71c0,4.31-3.49,7.8-7.8,7.8c-4.3,0-7.8-3.49-7.8-7.8c0-4.31,3.49-7.8,7.8-7.8C453,68.91,456.49,72.4,456.49,76.71z"
					/>
			</g>
		</g>
	</g>
	<g>
		<path d="M19.3,88.28c-1.53,0-3.01-0.18-4.44-0.55c-1.43-0.36-2.7-0.95-3.81-1.75c-1.11-0.8-1.99-1.82-2.66-3.07
			c-0.67-1.25-1-2.73-1-4.44c0-1.39,0.28-2.68,0.83-3.88c0.55-1.2,1.36-2.24,2.42-3.12c1.06-0.88,2.32-1.57,3.77-2.06
			c1.46-0.49,3.09-0.74,4.9-0.74h1.66v-1.76h2.5v18.87h4.73v2.5H19.3z M20.96,85.78v-14.6h-2.65c-1.06,0-2.1,0.18-3.12,0.55
			c-1.02,0.36-1.93,0.86-2.72,1.48c-0.79,0.62-1.42,1.39-1.89,2.29c-0.47,0.91-0.71,1.9-0.71,2.98c0,1.15,0.22,2.18,0.65,3.09
			c0.43,0.91,1.03,1.66,1.78,2.27c0.75,0.61,1.65,1.09,2.68,1.43c1.03,0.34,2.14,0.51,3.31,0.51H20.96z M17.08,63.1
			c-0.38,0.38-0.82,0.56-1.34,0.56s-0.96-0.19-1.34-0.56c-0.38-0.38-0.56-0.82-0.56-1.34s0.19-0.96,0.56-1.34
			c0.38-0.38,0.82-0.56,1.34-0.56s0.96,0.19,1.34,0.56c0.38,0.38,0.56,0.82,0.56,1.34S17.45,62.73,17.08,63.1z M23.39,63.1
			c-0.38,0.38-0.82,0.56-1.34,0.56c-0.52,0-0.96-0.19-1.34-0.56c-0.38-0.38-0.56-0.82-0.56-1.34s0.19-0.96,0.56-1.34
			c0.38-0.38,0.82-0.56,1.34-0.56c0.52,0,0.96,0.19,1.34,0.56c0.38,0.38,0.56,0.82,0.56,1.34S23.77,62.73,23.39,63.1z"/>
		<path d="M26.56,85.78h7.97v-17.1h2.5v19.61H26.56V85.78z M30.48,95.02c-0.38,0.38-0.82,0.56-1.34,0.56
			c-0.52,0-0.96-0.19-1.34-0.56c-0.38-0.38-0.56-0.82-0.56-1.34c0-0.52,0.19-0.96,0.56-1.34c0.38-0.38,0.82-0.56,1.34-0.56
			c0.52,0,0.96,0.19,1.34,0.56c0.38,0.38,0.56,0.82,0.56,1.34C31.04,94.19,30.85,94.64,30.48,95.02z M36.79,95.02
			c-0.38,0.38-0.82,0.56-1.34,0.56c-0.52,0-0.96-0.19-1.34-0.56c-0.38-0.38-0.56-0.82-0.56-1.34c0-0.52,0.19-0.96,0.56-1.34
			c0.38-0.38,0.82-0.56,1.34-0.56c0.52,0,0.96,0.19,1.34,0.56c0.38,0.38,0.56,0.82,0.56,1.34C37.36,94.19,37.17,94.64,36.79,95.02z"
			/>
		<path d="M42.54,96.08c-0.66,0-1.45-0.2-2.36-0.6l0.92-2.33c0.68,0.28,1.21,0.42,1.59,0.42c0.56,0,1-0.11,1.31-0.33
			c0.31-0.22,0.54-0.52,0.71-0.9c0.16-0.38,0.27-0.82,0.32-1.32c0.05-0.51,0.07-0.99,0.07-1.46V68.67h2.5v17.1h5.47v2.5h-5.47v1.27
			c0,0.85-0.07,1.66-0.19,2.45c-0.13,0.79-0.38,1.49-0.74,2.1c-0.36,0.61-0.88,1.09-1.55,1.45C44.43,95.9,43.57,96.08,42.54,96.08z"
			/>
		<path d="M51.43,85.78h7.97v-17.1h2.5v17.1h7.55v2.5H51.43V85.78z M58.52,95.02c-0.38,0.38-0.82,0.56-1.34,0.56
			c-0.52,0-0.96-0.19-1.34-0.56c-0.38-0.38-0.56-0.82-0.56-1.34c0-0.52,0.19-0.96,0.56-1.34c0.38-0.38,0.82-0.56,1.34-0.56
			c0.52,0,0.96,0.19,1.34,0.56c0.38,0.38,0.56,0.82,0.56,1.34C59.08,94.19,58.89,94.64,58.52,95.02z M64.83,95.02
			c-0.38,0.38-0.82,0.56-1.34,0.56c-0.52,0-0.96-0.19-1.34-0.56c-0.38-0.38-0.56-0.82-0.56-1.34c0-0.52,0.19-0.96,0.56-1.34
			c0.38-0.38,0.82-0.56,1.34-0.56c0.52,0,0.96,0.19,1.34,0.56c0.38,0.38,0.56,0.82,0.56,1.34C65.39,94.19,65.2,94.64,64.83,95.02z"
			/>
		<path d="M67.83,85.78h16.22c0.21-0.73,0.39-1.72,0.53-2.96c0.14-1.25,0.21-2.9,0.21-4.97c0-1.01-0.15-1.94-0.46-2.79
			c-0.31-0.85-0.88-1.63-1.73-2.36c-0.56-0.45-1.25-0.81-2.05-1.09c-0.8-0.28-1.74-0.42-2.82-0.42c-0.89,0-1.84,0.16-2.84,0.48
			s-2.04,0.89-3.12,1.71l-0.95-2.4c0.8-0.49,1.46-0.87,1.99-1.13c0.53-0.26,1.08-0.48,1.64-0.65c0.56-0.18,1.16-0.31,1.78-0.39
			c0.62-0.08,1.32-0.12,2.1-0.12c1.08,0,2.13,0.19,3.16,0.56c1.02,0.38,1.91,0.88,2.66,1.52c1.03,0.85,1.82,1.9,2.36,3.16
			c0.54,1.26,0.81,2.75,0.81,4.46c0,1.48-0.08,2.92-0.25,4.3c-0.16,1.39-0.33,2.42-0.49,3.1h4.62v2.5H67.83V85.78z M79.22,64.48
			c-0.38,0.38-0.82,0.56-1.34,0.56c-0.52,0-0.96-0.19-1.34-0.56c-0.38-0.38-0.56-0.82-0.56-1.34c0-0.52,0.19-0.96,0.56-1.34
			c0.38-0.38,0.82-0.56,1.34-0.56c0.52,0,0.96,0.19,1.34,0.56c0.38,0.38,0.56,0.82,0.56,1.34C79.78,63.65,79.59,64.1,79.22,64.48z"
			/>
		<path d="M89.58,85.78h5.5V58.76h6v2.5h-3.49v27.01h-8V85.78z"/>
		<path d="M105.63,58.76h2.5v29.52h-2.5V58.76z"/>
		<path d="M136.42,88.28c-1.53,0-3.01-0.18-4.44-0.55c-1.43-0.36-2.7-0.95-3.81-1.75c-1.11-0.8-1.99-1.82-2.66-3.07s-1-2.73-1-4.44
			c0-1.39,0.28-2.68,0.83-3.88c0.55-1.2,1.36-2.24,2.42-3.12c1.06-0.88,2.32-1.57,3.77-2.06s3.09-0.74,4.9-0.74h1.66v-1.76h2.5
			v18.87h4.73v2.5H136.42z M138.08,85.78v-14.6h-2.64c-1.06,0-2.1,0.18-3.12,0.55c-1.02,0.36-1.93,0.86-2.72,1.48
			c-0.79,0.62-1.42,1.39-1.89,2.29c-0.47,0.91-0.71,1.9-0.71,2.98c0,1.15,0.22,2.18,0.65,3.09c0.43,0.91,1.03,1.66,1.78,2.27
			c0.75,0.61,1.65,1.09,2.68,1.43s2.14,0.51,3.32,0.51H138.08z M134.2,63.1c-0.38,0.38-0.82,0.56-1.34,0.56
			c-0.52,0-0.96-0.19-1.34-0.56c-0.38-0.38-0.56-0.82-0.56-1.34s0.19-0.96,0.56-1.34c0.38-0.38,0.82-0.56,1.34-0.56
			c0.52,0,0.96,0.19,1.34,0.56c0.38,0.38,0.56,0.82,0.56,1.34S134.57,62.73,134.2,63.1z M140.51,63.1
			c-0.38,0.38-0.82,0.56-1.34,0.56c-0.52,0-0.96-0.19-1.34-0.56c-0.38-0.38-0.56-0.82-0.56-1.34s0.19-0.96,0.56-1.34
			c0.38-0.38,0.82-0.56,1.34-0.56c0.52,0,0.96,0.19,1.34,0.56c0.38,0.38,0.56,0.82,0.56,1.34S140.88,62.73,140.51,63.1z"/>
		<path d="M143.68,85.78h9.03v2.5h-9.03V85.78z"/>
		<path d="M151.09,85.78h7.41c-0.54-0.35-0.95-0.67-1.23-0.95s-0.63-0.76-1.06-1.45c-0.42-0.68-0.75-1.43-0.99-2.24
			c-0.24-0.81-0.35-1.71-0.35-2.7c0-1.43,0.26-2.76,0.79-3.97c0.53-1.21,1.3-2.24,2.33-3.1c1.02-0.86,2.26-1.52,3.7-1.99
			c1.45-0.47,3.1-0.71,4.95-0.71h4.83v19.61h-20.38V85.78z M157.37,78.44c0,0.87,0.13,1.68,0.41,2.42c0.27,0.74,0.63,1.42,1.08,2.03
			c0.45,0.61,0.98,1.16,1.61,1.66c0.62,0.49,1.26,0.91,1.92,1.23h6.59v-14.6h-3.32c-1.06,0-2.09,0.17-3.1,0.49
			c-1.01,0.33-1.9,0.8-2.66,1.41c-0.76,0.61-1.38,1.37-1.83,2.27C157.59,76.26,157.37,77.29,157.37,78.44z M164.17,64.48
			c-0.38,0.38-0.82,0.56-1.34,0.56s-0.96-0.19-1.34-0.56c-0.38-0.38-0.56-0.82-0.56-1.34c0-0.52,0.19-0.96,0.56-1.34
			c0.38-0.38,0.82-0.56,1.34-0.56s0.96,0.19,1.34,0.56c0.38,0.38,0.56,0.82,0.56,1.34C164.74,63.65,164.55,64.1,164.17,64.48z
			 M170.49,64.48c-0.38,0.38-0.82,0.56-1.34,0.56c-0.52,0-0.96-0.19-1.34-0.56c-0.38-0.38-0.56-0.82-0.56-1.34
			c0-0.52,0.19-0.96,0.56-1.34c0.38-0.38,0.82-0.56,1.34-0.56c0.52,0,0.96,0.19,1.34,0.56c0.38,0.38,0.56,0.82,0.56,1.34
			C171.05,63.65,170.86,64.1,170.49,64.48z"/>
		<path d="M174.43,85.78h13.68V76.5c0-0.85-0.08-1.56-0.25-2.15c-0.17-0.59-0.44-1.12-0.81-1.6c-0.38-0.48-0.88-0.86-1.5-1.15
			s-1.24-0.42-1.85-0.42h-3.03v-2.5h2.82c1.2,0,2.23,0.2,3.09,0.6c0.86,0.4,1.65,1,2.38,1.8c0.59,0.68,1.01,1.46,1.27,2.35
			c0.26,0.88,0.39,1.77,0.39,2.66v9.7h4.73v2.5h-20.91V85.78z"/>
		<path d="M193.73,85.78h9.03v2.5h-9.03V85.78z"/>
		<path d="M201.13,85.78h9.03v2.5h-9.03V85.78z"/>
		<path d="M208.54,85.78h5.5v-17.1h2.5v2.4h13.01c1.2,0,2.23,0.2,3.09,0.6c0.86,0.4,1.65,1,2.38,1.8c0.59,0.68,1.01,1.46,1.27,2.35
			c0.26,0.88,0.39,1.77,0.39,2.66v9.8h-28.14V85.78z M216.54,73.58v12.2h17.63V78.9c0-0.85-0.08-1.56-0.25-2.15
			c-0.17-0.59-0.44-1.12-0.81-1.6s-0.88-0.86-1.5-1.15c-0.62-0.28-1.24-0.42-1.85-0.42H216.54z"/>
		<path d="M263.91,88.28c-1.53,0-3.01-0.18-4.44-0.55c-1.43-0.36-2.7-0.95-3.81-1.75c-1.11-0.8-1.99-1.82-2.66-3.07s-1-2.73-1-4.44
			c0-1.39,0.28-2.68,0.83-3.88c0.55-1.2,1.36-2.24,2.42-3.12c1.06-0.88,2.32-1.57,3.77-2.06s3.09-0.74,4.9-0.74h1.66v-1.76h2.5
			v18.87h4.73v2.5H263.91z M265.56,85.78v-14.6h-2.64c-1.06,0-2.1,0.18-3.12,0.55c-1.02,0.36-1.93,0.86-2.72,1.48
			c-0.79,0.62-1.42,1.39-1.89,2.29c-0.47,0.91-0.71,1.9-0.71,2.98c0,1.15,0.22,2.18,0.65,3.09c0.43,0.91,1.03,1.66,1.78,2.27
			c0.75,0.61,1.65,1.09,2.68,1.43s2.14,0.51,3.32,0.51H265.56z M261.68,63.1c-0.38,0.38-0.82,0.56-1.34,0.56
			c-0.52,0-0.96-0.19-1.34-0.56c-0.38-0.38-0.56-0.82-0.56-1.34s0.19-0.96,0.56-1.34c0.38-0.38,0.82-0.56,1.34-0.56
			c0.52,0,0.96,0.19,1.34,0.56c0.38,0.38,0.56,0.82,0.56,1.34S262.06,62.73,261.68,63.1z M268,63.1c-0.38,0.38-0.82,0.56-1.34,0.56
			c-0.52,0-0.96-0.19-1.34-0.56c-0.38-0.38-0.56-0.82-0.56-1.34s0.19-0.96,0.56-1.34c0.38-0.38,0.82-0.56,1.34-0.56
			c0.52,0,0.96,0.19,1.34,0.56c0.38,0.38,0.56,0.82,0.56,1.34S268.37,62.73,268,63.1z"/>
		<path d="M271.17,85.78h7.97v-17.1h2.5v17.1h7.55v2.5h-18.02V85.78z M278.26,95.02c-0.38,0.38-0.82,0.56-1.34,0.56
			c-0.52,0-0.96-0.19-1.34-0.56c-0.38-0.38-0.56-0.82-0.56-1.34c0-0.52,0.19-0.96,0.56-1.34c0.38-0.38,0.82-0.56,1.34-0.56
			c0.52,0,0.96,0.19,1.34,0.56c0.38,0.38,0.56,0.82,0.56,1.34C278.82,94.19,278.63,94.64,278.26,95.02z M284.57,95.02
			c-0.38,0.38-0.82,0.56-1.34,0.56s-0.96-0.19-1.34-0.56c-0.38-0.38-0.56-0.82-0.56-1.34c0-0.52,0.19-0.96,0.56-1.34
			c0.38-0.38,0.82-0.56,1.34-0.56s0.96,0.19,1.34,0.56c0.38,0.38,0.56,0.82,0.56,1.34C285.14,94.19,284.95,94.64,284.57,95.02z"/>
		<path d="M287.57,85.78h6.95l-4.94-12.56c1.65-1.43,3.37-2.55,5.18-3.35c1.81-0.8,3.6-1.2,5.36-1.2c1.74,0,3.51,0.4,5.33,1.2
			s3.56,1.92,5.25,3.35l-5.18,12.56h7.83v2.5h-25.78V85.78z M300.12,71.18c-1.34,0-2.67,0.26-4,0.78c-1.33,0.52-2.51,1.21-3.54,2.08
			l4.8,11.74h5.47l4.83-11.74c-0.28-0.26-0.74-0.57-1.36-0.93c-0.62-0.36-1.28-0.69-1.98-0.99c-0.69-0.29-1.41-0.52-2.13-0.69
			C301.48,71.26,300.78,71.18,300.12,71.18z"/>
		<path d="M311.73,85.78h3.63c-0.75-1.2-1.13-2.84-1.13-4.94c0-1.43,0.26-2.79,0.79-4.06s1.25-2.39,2.15-3.35
			c0.91-0.96,1.98-1.72,3.23-2.27c1.25-0.55,2.6-0.83,4.06-0.83c1.53,0,2.93,0.27,4.21,0.81c1.28,0.54,2.39,1.28,3.33,2.22
			c0.94,0.94,1.67,2.05,2.2,3.31c0.53,1.27,0.79,2.66,0.79,4.16c0,1.08-0.14,2.09-0.42,3.03s-0.53,1.58-0.74,1.9h3.84v2.5h-5.68
			c-0.87,0.89-1.96,1.62-3.26,2.17c-1.3,0.55-2.73,0.83-4.29,0.83c-1.5,0-2.89-0.28-4.14-0.85c-1.26-0.56-2.3-1.28-3.12-2.15h-5.47
			V85.78z M324.46,88.78c1.15,0,2.22-0.2,3.21-0.6s1.83-0.95,2.54-1.64c0.71-0.69,1.26-1.53,1.67-2.5s0.62-2.04,0.62-3.19
			c0-1.15-0.2-2.22-0.6-3.21c-0.4-0.99-0.96-1.83-1.67-2.54c-0.72-0.71-1.57-1.26-2.56-1.66s-2.06-0.6-3.21-0.6
			c-1.13,0-2.16,0.21-3.1,0.63s-1.75,1-2.43,1.73c-0.68,0.73-1.22,1.58-1.61,2.56c-0.39,0.98-0.58,2-0.58,3.09
			c0,1.06,0.19,2.08,0.58,3.05c0.39,0.98,0.93,1.82,1.62,2.54c0.69,0.72,1.51,1.29,2.45,1.71
			C322.33,88.56,323.35,88.78,324.46,88.78z"/>
		<path d="M336.06,85.78h16.22c0.21-0.73,0.39-1.72,0.53-2.96c0.14-1.25,0.21-2.9,0.21-4.97c0-1.01-0.15-1.94-0.46-2.79
			c-0.31-0.85-0.88-1.63-1.73-2.36c-0.56-0.45-1.25-0.81-2.05-1.09c-0.8-0.28-1.74-0.42-2.82-0.42c-0.89,0-1.84,0.16-2.84,0.48
			s-2.04,0.89-3.12,1.71l-0.95-2.4c0.8-0.49,1.46-0.87,1.99-1.13c0.53-0.26,1.08-0.48,1.64-0.65s1.16-0.31,1.78-0.39
			c0.62-0.08,1.32-0.12,2.1-0.12c1.08,0,2.13,0.19,3.16,0.56c1.02,0.38,1.91,0.88,2.66,1.52c1.03,0.85,1.82,1.9,2.36,3.16
			c0.54,1.26,0.81,2.75,0.81,4.46c0,0.94-0.04,1.88-0.11,2.8c-0.07,0.93-0.17,1.81-0.28,2.65c-0.12,0.83-0.25,1.6-0.41,2.31
			c-0.15,0.71-0.36,1.42-0.62,2.15h-18.09V85.78z M347.52,95.02c-0.38,0.38-0.82,0.56-1.34,0.56c-0.52,0-0.96-0.19-1.34-0.56
			c-0.38-0.38-0.56-0.82-0.56-1.34c0-0.52,0.19-0.96,0.56-1.34c0.38-0.38,0.82-0.56,1.34-0.56c0.52,0,0.96,0.19,1.34,0.56
			c0.38,0.38,0.56,0.82,0.56,1.34C348.09,94.19,347.9,94.64,347.52,95.02z"/>
		<path d="M79.9,130.51c-1.1,0-2.17-0.13-3.2-0.39c-1.03-0.26-1.95-0.68-2.74-1.26c-0.8-0.58-1.44-1.31-1.92-2.21
			c-0.48-0.9-0.72-1.96-0.72-3.2c0-1,0.2-1.93,0.6-2.79c0.4-0.86,0.98-1.61,1.74-2.25c0.76-0.64,1.67-1.13,2.72-1.49
			c1.05-0.36,2.23-0.53,3.53-0.53h1.19v-1.27h1.8v13.6h3.41v1.8H79.9z M81.1,128.7v-10.52h-1.91c-0.76,0-1.51,0.13-2.25,0.39
			s-1.39,0.62-1.96,1.07c-0.57,0.45-1.02,1-1.36,1.65c-0.34,0.65-0.51,1.37-0.51,2.15c0,0.83,0.16,1.57,0.47,2.22
			s0.74,1.2,1.28,1.64c0.54,0.44,1.19,0.78,1.93,1.03c0.75,0.25,1.54,0.37,2.39,0.37H81.1z M78.3,112.36
			c-0.27,0.27-0.59,0.41-0.97,0.41c-0.37,0-0.69-0.14-0.97-0.41s-0.41-0.59-0.41-0.97c0-0.37,0.14-0.69,0.41-0.97
			c0.27-0.27,0.59-0.41,0.97-0.41c0.37,0,0.69,0.14,0.97,0.41c0.27,0.27,0.41,0.59,0.41,0.97C78.71,111.77,78.57,112.09,78.3,112.36
			z M82.85,112.36c-0.27,0.27-0.59,0.41-0.97,0.41c-0.37,0-0.69-0.14-0.97-0.41s-0.41-0.59-0.41-0.97c0-0.37,0.14-0.69,0.41-0.97
			c0.27-0.27,0.59-0.41,0.97-0.41c0.37,0,0.69,0.14,0.97,0.41c0.27,0.27,0.41,0.59,0.41,0.97
			C83.26,111.77,83.12,112.09,82.85,112.36z"/>
		<path d="M85.14,128.7h5.74v-12.32h1.8v12.32h5.44v1.8H85.14V128.7z M90.25,135.36c-0.27,0.27-0.59,0.41-0.97,0.41
			c-0.37,0-0.69-0.14-0.97-0.41c-0.27-0.27-0.41-0.59-0.41-0.97c0-0.37,0.14-0.7,0.41-0.97c0.27-0.27,0.59-0.41,0.97-0.41
			c0.37,0,0.69,0.14,0.97,0.41c0.27,0.27,0.41,0.59,0.41,0.97C90.65,134.77,90.52,135.09,90.25,135.36z M94.79,135.36
			c-0.27,0.27-0.59,0.41-0.97,0.41c-0.37,0-0.69-0.14-0.97-0.41c-0.27-0.27-0.41-0.59-0.41-0.97c0-0.37,0.14-0.7,0.41-0.97
			c0.27-0.27,0.59-0.41,0.97-0.41c0.37,0,0.69,0.14,0.97,0.41c0.27,0.27,0.41,0.59,0.41,0.97C95.2,134.77,95.06,135.09,94.79,135.36
			z"/>
		<path d="M96.95,128.7h5.01l-3.56-9.05c1.19-1.03,2.43-1.84,3.74-2.41c1.3-0.58,2.59-0.86,3.86-0.86c1.25,0,2.53,0.29,3.84,0.86
			c1.3,0.58,2.57,1.38,3.79,2.41l-3.74,9.05h5.64v1.8H96.95V128.7z M106,118.18c-0.97,0-1.93,0.19-2.88,0.56
			c-0.96,0.37-1.81,0.87-2.55,1.5l3.46,8.46h3.94l3.48-8.46c-0.2-0.19-0.53-0.41-0.98-0.67c-0.45-0.26-0.92-0.5-1.42-0.71
			c-0.5-0.21-1.01-0.38-1.54-0.5C106.97,118.24,106.47,118.18,106,118.18z"/>
		<path d="M114.36,128.7h2.62c-0.54-0.86-0.81-2.05-0.81-3.56c0-1.03,0.19-2.01,0.57-2.92c0.38-0.92,0.9-1.72,1.55-2.41
			c0.65-0.69,1.43-1.24,2.33-1.64c0.9-0.4,1.87-0.6,2.92-0.6c1.1,0,2.11,0.19,3.04,0.58c0.92,0.39,1.72,0.92,2.4,1.6
			s1.21,1.47,1.59,2.39s0.57,1.91,0.57,3c0,0.78-0.1,1.51-0.3,2.19c-0.2,0.68-0.38,1.13-0.53,1.37h2.77v1.8h-4.09
			c-0.63,0.64-1.41,1.17-2.35,1.56c-0.94,0.4-1.97,0.6-3.09,0.6c-1.08,0-2.08-0.2-2.99-0.61c-0.91-0.41-1.66-0.92-2.25-1.55h-3.94
			V128.7z M123.54,130.86c0.83,0,1.6-0.14,2.31-0.43c0.71-0.29,1.32-0.68,1.83-1.18c0.51-0.5,0.91-1.1,1.21-1.8
			c0.3-0.7,0.45-1.47,0.45-2.3s-0.14-1.6-0.43-2.31c-0.29-0.71-0.69-1.32-1.21-1.83c-0.52-0.51-1.13-0.91-1.84-1.19
			c-0.71-0.29-1.48-0.43-2.31-0.43c-0.81,0-1.56,0.15-2.24,0.46c-0.68,0.3-1.26,0.72-1.75,1.25c-0.49,0.53-0.88,1.14-1.16,1.84
			c-0.28,0.7-0.42,1.44-0.42,2.22c0,0.76,0.14,1.5,0.42,2.2c0.28,0.7,0.67,1.31,1.17,1.83c0.5,0.52,1.09,0.93,1.77,1.23
			C122,130.71,122.74,130.86,123.54,130.86z"/>
		<path d="M131.9,128.7h5.74v-12.32h1.8v12.32h5.44v1.8H131.9V128.7z M137.03,113.35c-0.27,0.27-0.59,0.41-0.97,0.41
			c-0.37,0-0.69-0.14-0.96-0.41c-0.27-0.27-0.41-0.59-0.41-0.97s0.14-0.69,0.41-0.97c0.27-0.27,0.59-0.41,0.96-0.41
			c0.37,0,0.69,0.14,0.97,0.41c0.27,0.27,0.41,0.59,0.41,0.97S137.3,113.08,137.03,113.35z M141.58,113.35
			c-0.27,0.27-0.59,0.41-0.97,0.41c-0.37,0-0.69-0.14-0.97-0.41c-0.27-0.27-0.41-0.59-0.41-0.97s0.14-0.69,0.41-0.97
			c0.27-0.27,0.59-0.41,0.97-0.41c0.37,0,0.69,0.14,0.97,0.41c0.27,0.27,0.41,0.59,0.41,0.97S141.85,113.08,141.58,113.35z"/>
		<path d="M143.71,128.7h11.69c0.15-0.53,0.28-1.24,0.38-2.13c0.1-0.9,0.15-2.09,0.15-3.58c0-0.73-0.11-1.4-0.33-2.01
			c-0.22-0.61-0.63-1.18-1.25-1.7c-0.41-0.32-0.9-0.58-1.47-0.79c-0.58-0.2-1.25-0.31-2.03-0.31c-0.64,0-1.33,0.11-2.05,0.34
			c-0.72,0.23-1.47,0.64-2.25,1.23l-0.69-1.73c0.58-0.36,1.05-0.63,1.44-0.81c0.38-0.19,0.78-0.34,1.18-0.47
			c0.41-0.13,0.83-0.22,1.28-0.28c0.45-0.06,0.95-0.09,1.51-0.09c0.78,0,1.54,0.14,2.27,0.41c0.74,0.27,1.38,0.64,1.92,1.09
			c0.75,0.61,1.31,1.37,1.7,2.27c0.39,0.91,0.58,1.98,0.58,3.21c0,1.07-0.06,2.1-0.18,3.1c-0.12,1-0.24,1.75-0.36,2.24h3.33v1.8
			h-16.85V128.7z M151.97,135.36c-0.27,0.27-0.59,0.41-0.97,0.41c-0.37,0-0.69-0.14-0.97-0.41c-0.27-0.27-0.41-0.59-0.41-0.97
			c0-0.37,0.14-0.7,0.41-0.97c0.27-0.27,0.59-0.41,0.97-0.41c0.37,0,0.69,0.14,0.97,0.41c0.27,0.27,0.41,0.59,0.41,0.97
			C152.38,134.77,152.24,135.09,151.97,135.36z"/>
		<path d="M159.39,128.7h2.62c-0.54-0.86-0.81-2.05-0.81-3.56c0-1.03,0.19-2.01,0.57-2.92c0.38-0.92,0.9-1.72,1.55-2.41
			c0.65-0.69,1.43-1.24,2.33-1.64c0.9-0.4,1.87-0.6,2.92-0.6c1.1,0,2.11,0.19,3.04,0.58c0.92,0.39,1.72,0.92,2.4,1.6
			s1.21,1.47,1.59,2.39s0.57,1.91,0.57,3c0,0.78-0.1,1.51-0.3,2.19c-0.2,0.68-0.38,1.13-0.53,1.37h2.77v1.8H174
			c-0.63,0.64-1.41,1.17-2.35,1.56c-0.94,0.4-1.97,0.6-3.09,0.6c-1.08,0-2.08-0.2-2.99-0.61c-0.91-0.41-1.66-0.92-2.25-1.55h-3.94
			V128.7z M168.57,130.86c0.83,0,1.6-0.14,2.31-0.43c0.71-0.29,1.32-0.68,1.83-1.18c0.51-0.5,0.91-1.1,1.21-1.8
			c0.3-0.7,0.45-1.47,0.45-2.3s-0.14-1.6-0.43-2.31c-0.29-0.71-0.69-1.32-1.21-1.83s-1.13-0.91-1.84-1.19
			c-0.71-0.29-1.48-0.43-2.31-0.43c-0.81,0-1.56,0.15-2.24,0.46c-0.68,0.3-1.26,0.72-1.75,1.25c-0.49,0.53-0.88,1.14-1.16,1.84
			c-0.28,0.7-0.42,1.44-0.42,2.22c0,0.76,0.14,1.5,0.42,2.2c0.28,0.7,0.67,1.31,1.17,1.83c0.5,0.52,1.09,0.93,1.77,1.23
			C167.03,130.71,167.77,130.86,168.57,130.86z"/>
		<path d="M176.93,128.7h3.96v-19.47h4.32v1.8h-2.52v19.46h-5.77V128.7z"/>
		<path d="M188.49,109.24h1.8v21.27h-1.8V109.24z"/>
		<path d="M210.67,130.51c-1.1,0-2.17-0.13-3.2-0.39c-1.03-0.26-1.95-0.68-2.75-1.26c-0.8-0.58-1.44-1.31-1.92-2.21
			c-0.48-0.9-0.72-1.96-0.72-3.2c0-1,0.2-1.93,0.6-2.79c0.4-0.86,0.98-1.61,1.74-2.25c0.76-0.64,1.67-1.13,2.72-1.49
			c1.05-0.36,2.23-0.53,3.53-0.53h1.19v-1.27h1.8v13.6h3.41v1.8H210.67z M211.87,128.7v-10.52h-1.91c-0.76,0-1.51,0.13-2.25,0.39
			s-1.39,0.62-1.96,1.07s-1.02,1-1.36,1.65c-0.34,0.65-0.51,1.37-0.51,2.15c0,0.83,0.16,1.57,0.47,2.22s0.74,1.2,1.28,1.64
			c0.54,0.44,1.19,0.78,1.93,1.03c0.75,0.25,1.54,0.37,2.39,0.37H211.87z M209.07,112.36c-0.27,0.27-0.59,0.41-0.97,0.41
			c-0.37,0-0.69-0.14-0.96-0.41c-0.27-0.27-0.41-0.59-0.41-0.97c0-0.37,0.14-0.69,0.41-0.97c0.27-0.27,0.59-0.41,0.96-0.41
			c0.37,0,0.7,0.14,0.97,0.41c0.27,0.27,0.41,0.59,0.41,0.97C209.48,111.77,209.34,112.09,209.07,112.36z M213.62,112.36
			c-0.27,0.27-0.59,0.41-0.97,0.41c-0.37,0-0.69-0.14-0.96-0.41c-0.27-0.27-0.41-0.59-0.41-0.97c0-0.37,0.14-0.69,0.41-0.97
			c0.27-0.27,0.59-0.41,0.96-0.41c0.37,0,0.7,0.14,0.97,0.41c0.27,0.27,0.41,0.59,0.41,0.97
			C214.03,111.77,213.89,112.09,213.62,112.36z"/>
		<path d="M215.91,128.7h5.74v-12.32h1.8v12.32h5.44v1.8h-12.99V128.7z M221.01,135.36c-0.27,0.27-0.59,0.41-0.97,0.41
			c-0.37,0-0.69-0.14-0.97-0.41c-0.27-0.27-0.41-0.59-0.41-0.97c0-0.37,0.14-0.7,0.41-0.97c0.27-0.27,0.59-0.41,0.97-0.41
			c0.37,0,0.69,0.14,0.97,0.41c0.27,0.27,0.41,0.59,0.41,0.97C221.42,134.77,221.29,135.09,221.01,135.36z M225.56,135.36
			c-0.27,0.27-0.59,0.41-0.97,0.41c-0.37,0-0.69-0.14-0.97-0.41c-0.27-0.27-0.41-0.59-0.41-0.97c0-0.37,0.14-0.7,0.41-0.97
			c0.27-0.27,0.59-0.41,0.97-0.41c0.37,0,0.69,0.14,0.97,0.41c0.27,0.27,0.41,0.59,0.41,0.97
			C225.97,134.77,225.83,135.09,225.56,135.36z"/>
		<path d="M227.72,128.7h2.62c-0.54-0.86-0.81-2.05-0.81-3.56c0-1.03,0.19-2.01,0.57-2.92c0.38-0.92,0.9-1.72,1.55-2.41
			c0.65-0.69,1.43-1.24,2.33-1.64c0.9-0.4,1.87-0.6,2.92-0.6c1.1,0,2.11,0.19,3.04,0.58c0.92,0.39,1.72,0.92,2.4,1.6
			s1.21,1.47,1.59,2.39s0.57,1.91,0.57,3c0,0.78-0.1,1.51-0.3,2.19c-0.2,0.68-0.38,1.13-0.53,1.37h2.77v1.8h-4.09
			c-0.63,0.64-1.41,1.17-2.35,1.56c-0.94,0.4-1.97,0.6-3.09,0.6c-1.08,0-2.08-0.2-2.99-0.61c-0.91-0.41-1.66-0.92-2.25-1.55h-3.94
			V128.7z M236.9,130.86c0.83,0,1.6-0.14,2.31-0.43c0.71-0.29,1.32-0.68,1.83-1.18c0.51-0.5,0.91-1.1,1.21-1.8
			c0.3-0.7,0.45-1.47,0.45-2.3s-0.14-1.6-0.43-2.31c-0.29-0.71-0.69-1.32-1.21-1.83s-1.13-0.91-1.84-1.19
			c-0.71-0.29-1.48-0.43-2.31-0.43c-0.81,0-1.56,0.15-2.24,0.46c-0.68,0.3-1.26,0.72-1.75,1.25c-0.49,0.53-0.88,1.14-1.16,1.84
			c-0.28,0.7-0.42,1.44-0.42,2.22c0,0.76,0.14,1.5,0.42,2.2c0.28,0.7,0.67,1.31,1.17,1.83c0.5,0.52,1.09,0.93,1.77,1.23
			C235.36,130.71,236.1,130.86,236.9,130.86z"/>
		<path d="M245.26,128.7h3.2v-12.32h1.8v12.32h3.41v1.8h-8.41V128.7z M250.24,113.35c-0.27,0.27-0.59,0.41-0.97,0.41
			s-0.69-0.14-0.97-0.41c-0.27-0.27-0.41-0.59-0.41-0.97s0.14-0.69,0.41-0.97c0.27-0.27,0.59-0.41,0.97-0.41s0.69,0.14,0.97,0.41
			c0.27,0.27,0.41,0.59,0.41,0.97S250.51,113.08,250.24,113.35z"/>
		<path d="M252.5,128.7h5.74v-12.32h1.8v12.32h5.44v1.8H252.5V128.7z M257.63,113.35c-0.27,0.27-0.59,0.41-0.97,0.41
			c-0.37,0-0.69-0.14-0.96-0.41c-0.27-0.27-0.41-0.59-0.41-0.97s0.14-0.69,0.41-0.97c0.27-0.27,0.59-0.41,0.96-0.41
			c0.37,0,0.69,0.14,0.97,0.41c0.27,0.27,0.41,0.59,0.41,0.97S257.9,113.08,257.63,113.35z M262.18,113.35
			c-0.27,0.27-0.59,0.41-0.97,0.41c-0.37,0-0.69-0.14-0.97-0.41c-0.27-0.27-0.41-0.59-0.41-0.97s0.14-0.69,0.41-0.97
			c0.27-0.27,0.59-0.41,0.97-0.41c0.37,0,0.69,0.14,0.97,0.41c0.27,0.27,0.41,0.59,0.41,0.97S262.45,113.08,262.18,113.35z"/>
		<path d="M264.32,128.7h3.46v-19.47h1.8v19.47h3.96v1.8h-9.22V128.7z"/>
		<path d="M272.37,128.7h3.96v-19.47h4.32v1.8h-2.52v19.46h-5.77V128.7z"/>
	</g>
</g>
</svg>
