<?xml version="1.0" encoding="utf-8"?>
<!-- Generator: Adobe Illustrator 26.0.1, SVG Export Plug-In . SVG Version: 6.00 Build 0)  -->
<svg version="1.1" id="Layer_1" xmlns="http://www.w3.org/2000/svg" xmlns:xlink="http://www.w3.org/1999/xlink" x="0px" y="0px"
	 viewBox="0 0 539.74 177.7" style="enable-background:new 0 0 539.74 177.7;" xml:space="preserve">
<style type="text/css">
	.st0{fill-rule:evenodd;clip-rule:evenodd;fill:url(#SVGID_1_);}
	.st1{fill-rule:evenodd;clip-rule:evenodd;fill:url(#SVGID_00000012471581266823497080000009400471150102258090_);}
	.st2{fill-rule:evenodd;clip-rule:evenodd;fill:url(#SVGID_00000104681752848156682110000013068921096702267536_);}
	.st3{fill-rule:evenodd;clip-rule:evenodd;fill:url(#SVGID_00000169518434841241560470000007268638419802385584_);}
	.st4{fill-rule:evenodd;clip-rule:evenodd;fill:url(#SVGID_00000141439108727708342070000016055724232038992781_);}
	.st5{fill-rule:evenodd;clip-rule:evenodd;fill:url(#SVGID_00000114061866539983023040000016822633572467539124_);}
	.st6{fill-rule:evenodd;clip-rule:evenodd;fill:url(#SVGID_00000036238601853235056380000014056706871735814065_);}
	.st7{fill-rule:evenodd;clip-rule:evenodd;fill:url(#SVGID_00000016051275896598476950000007155054812824336259_);}
	.st8{fill-rule:evenodd;clip-rule:evenodd;fill:url(#SVGID_00000019659354585514832960000001079505617479773344_);}
	.st9{fill-rule:evenodd;clip-rule:evenodd;fill:url(#SVGID_00000103244151464823492400000001725028507008921230_);}
	.st10{fill-rule:evenodd;clip-rule:evenodd;fill:url(#SVGID_00000119099337204834832930000011384176926030648231_);}
	.st11{fill-rule:evenodd;clip-rule:evenodd;fill:url(#SVGID_00000019666581152744772330000016447535650170951087_);}
	.st12{fill-rule:evenodd;clip-rule:evenodd;fill:url(#SVGID_00000004507187725258204780000015636056669657524657_);}
</style>
<g>
	<g>
		<g>
			<linearGradient id="SVGID_1_" gradientUnits="userSpaceOnUse" x1="23.3112" y1="132.209" x2="101.2634" y2="132.209">
				<stop  offset="0.0335" style="stop-color:#3AAA35"/>
				<stop  offset="1" style="stop-color:#006633"/>
			</linearGradient>
			<path class="st0" d="M81.08,164.61h20.13v-17.42c0-0.04,0-0.08,0-0.11c0.24-3.47-0.35-6.89-1.65-10.01
				c-1.3-3.12-3.31-5.95-5.93-8.23c-2.07-1.79-4.41-3.16-6.92-4.08c-2.53-0.92-5.21-1.38-7.92-1.35c-2.81,0.04-5.42-0.2-7.97-0.75
				c-2.55-0.55-5.03-1.4-7.58-2.6c-0.31-0.14-0.61-0.29-0.92-0.44c-0.03-0.01-0.06-0.03-0.1-0.05c-1.01-0.49-1.99-1.02-2.96-1.57
				c-0.43-0.24-0.85-0.49-1.27-0.74c-0.02-0.01-0.03-0.02-0.05-0.03c-0.84-0.51-1.67-1.04-2.48-1.58c-2.2-1.48-4.55-2.34-6.74-2.25
				c-1.9,0.08-3.71,0.88-5.22,2.63c-0.05,0.06-0.08,0.12-0.1,0.18c-0.01,0.06-0.01,0.13,0.01,0.2c0.02,0.07,0.05,0.14,0.09,0.18
				c0.04,0.05,0.1,0.09,0.17,0.12c3.29,1.31,6.4,3,9.25,5.04c2.86,2.04,5.47,4.43,7.77,7.12c0.3,0.36,0.26,0.89-0.09,1.19
				c-0.36,0.3-0.89,0.26-1.2-0.09c-2.21-2.59-4.72-4.88-7.47-6.84c-2.75-1.97-5.74-3.6-8.9-4.85c-0.33-0.13-0.6-0.32-0.82-0.57
				c-0.22-0.25-0.38-0.55-0.46-0.89c-0.08-0.34-0.08-0.68-0.01-1c0.06-0.26,0.18-0.51,0.34-0.74c-2.11-1.85-4.08-3.83-5.93-5.93
				c-2.04-2.33-3.93-4.8-5.63-7.39c-0.91-0.89-2.02-1.48-3.2-1.77c-1.22-0.3-2.52-0.26-3.75,0.14c-0.07,0.02-0.12,0.05-0.16,0.08
				c-0.04,0.04-0.07,0.08-0.1,0.15c-0.03,0.06-0.04,0.12-0.04,0.17c0,0.05,0.01,0.11,0.04,0.18c4.68,10.58,11.53,19.86,19.95,27.35
				c8.45,7.52,18.48,13.24,29.48,16.64c2.45,0.76,4.49,2.2,5.94,4.09c1.46,1.89,2.32,4.23,2.43,6.79c0.11,2.64,0.1,5.27-0.02,7.91
				C81.12,163.87,81.1,164.24,81.08,164.61z"/>
			
				<linearGradient id="SVGID_00000071520390510660795810000011209951599109699467_" gradientUnits="userSpaceOnUse" x1="111.0532" y1="132.209" x2="189.0052" y2="132.209">
				<stop  offset="0" style="stop-color:#006633"/>
				<stop  offset="0.9665" style="stop-color:#3AAA35"/>
			</linearGradient>
			<path style="fill-rule:evenodd;clip-rule:evenodd;fill:url(#SVGID_00000071520390510660795810000011209951599109699467_);" d="
				M131.24,164.61H111.1v-17.42c0-0.04,0-0.08,0-0.11c-0.24-3.47,0.35-6.89,1.65-10.01c1.3-3.12,3.31-5.95,5.93-8.23
				c2.07-1.79,4.41-3.16,6.92-4.08c2.53-0.92,5.21-1.38,7.92-1.35c2.81,0.04,5.42-0.2,7.97-0.75c2.55-0.55,5.03-1.4,7.58-2.6
				c0.31-0.14,0.61-0.29,0.92-0.44c0.03-0.01,0.06-0.03,0.1-0.05c1.01-0.49,1.99-1.02,2.96-1.57c0.43-0.24,0.85-0.49,1.27-0.74
				c0.02-0.01,0.03-0.02,0.05-0.03c0.84-0.51,1.67-1.04,2.48-1.58c2.2-1.48,4.55-2.34,6.74-2.25c1.9,0.08,3.71,0.88,5.22,2.63
				c0.05,0.06,0.08,0.12,0.1,0.18c0.01,0.06,0.01,0.13-0.01,0.2c-0.02,0.07-0.05,0.14-0.09,0.18c-0.04,0.05-0.1,0.09-0.17,0.12
				c-3.29,1.31-6.4,3-9.25,5.04c-2.86,2.04-5.47,4.43-7.77,7.12c-0.3,0.36-0.26,0.89,0.09,1.19c0.36,0.3,0.89,0.26,1.2-0.09
				c2.21-2.59,4.72-4.88,7.47-6.84c2.75-1.97,5.74-3.6,8.9-4.85c0.33-0.13,0.6-0.32,0.82-0.57c0.22-0.25,0.38-0.55,0.46-0.89
				c0.08-0.34,0.08-0.68,0.01-1c-0.06-0.26-0.18-0.51-0.34-0.74c2.11-1.85,4.08-3.83,5.93-5.93c2.04-2.33,3.93-4.8,5.63-7.39
				c0.91-0.89,2.02-1.48,3.2-1.77c1.22-0.3,2.52-0.26,3.75,0.14c0.07,0.02,0.12,0.05,0.16,0.08c0.04,0.04,0.07,0.08,0.1,0.15
				c0.03,0.06,0.04,0.12,0.04,0.17c0,0.05-0.01,0.11-0.04,0.18c-4.68,10.58-11.53,19.86-19.95,27.35
				c-8.45,7.52-18.48,13.24-29.48,16.64c-2.45,0.76-4.49,2.2-5.94,4.09c-1.46,1.89-2.32,4.23-2.43,6.79
				c-0.11,2.64-0.1,5.27,0.02,7.91C131.2,163.87,131.21,164.24,131.24,164.61z"/>
		</g>
		<g>
			<g>
				
					<radialGradient id="SVGID_00000122682356911667018730000010005821198081698708_" cx="107.1377" cy="68.1739" r="120.9336" gradientUnits="userSpaceOnUse">
					<stop  offset="0" style="stop-color:#95C11F"/>
					<stop  offset="0.1913" style="stop-color:#7EBA28"/>
					<stop  offset="0.4931" style="stop-color:#5DB130"/>
					<stop  offset="0.7709" style="stop-color:#45AC34"/>
					<stop  offset="1" style="stop-color:#3AAA35"/>
				</radialGradient>
				<path style="fill-rule:evenodd;clip-rule:evenodd;fill:url(#SVGID_00000122682356911667018730000010005821198081698708_);" d="
					M112.4,24.2c-2.93-6.1-6.03-10.68-6.43-11.1c-0.32,0.54-5,6.75-7.25,13.7c-2.15,6.66-3.44,15.39,2.66,19.16
					c0.25-0.68,4.96-11.17,4.96-11.17c0.13,0.21,5.41,10.69,5.8,11.14C117.47,38.61,115.23,30.07,112.4,24.2z"/>
				<g>
					
						<radialGradient id="SVGID_00000158733004593347791070000006324256435245594755_" cx="107.1377" cy="68.1738" r="120.9337" gradientUnits="userSpaceOnUse">
						<stop  offset="0" style="stop-color:#95C11F"/>
						<stop  offset="0.1913" style="stop-color:#7EBA28"/>
						<stop  offset="0.4931" style="stop-color:#5DB130"/>
						<stop  offset="0.7709" style="stop-color:#45AC34"/>
						<stop  offset="1" style="stop-color:#3AAA35"/>
					</radialGradient>
					<path style="fill-rule:evenodd;clip-rule:evenodd;fill:url(#SVGID_00000158733004593347791070000006324256435245594755_);" d="
						M157.61,89.69c5.18-2.49,9.07-5.12,9.43-5.46c-0.46-0.27-5.73-4.25-11.63-6.15c-5.66-1.83-13.07-2.92-16.27,2.26
						c0.58,0.21,9.49,4.21,9.48,4.21c-0.18,0.11-9.08,4.6-9.46,4.92C145.38,93.99,152.62,92.08,157.61,89.69z"/>
					<g>
						
							<radialGradient id="SVGID_00000183951676343626386250000016540016205810887093_" cx="107.1378" cy="68.174" r="120.9333" gradientUnits="userSpaceOnUse">
							<stop  offset="0" style="stop-color:#95C11F"/>
							<stop  offset="0.1913" style="stop-color:#7EBA28"/>
							<stop  offset="0.4931" style="stop-color:#5DB130"/>
							<stop  offset="0.7709" style="stop-color:#45AC34"/>
							<stop  offset="1" style="stop-color:#3AAA35"/>
						</radialGradient>
						
							<path style="fill-rule:evenodd;clip-rule:evenodd;fill:url(#SVGID_00000183951676343626386250000016540016205810887093_);" d="
							M54.71,79.08c-5.18,2.49-9.06,5.12-9.43,5.46c0.46,0.27,5.73,4.25,11.63,6.15c5.66,1.83,13.06,2.92,16.26-2.26
							c-0.58-0.21-9.49-4.21-9.48-4.21c0.18-0.11,9.08-4.6,9.46-4.92C66.94,74.78,59.7,76.68,54.71,79.08z"/>
						<g>
							
								<radialGradient id="SVGID_00000178200092573642450860000001856406920957605558_" cx="107.1385" cy="68.1743" r="120.9318" gradientUnits="userSpaceOnUse">
								<stop  offset="0" style="stop-color:#95C11F"/>
								<stop  offset="0.1913" style="stop-color:#7EBA28"/>
								<stop  offset="0.4931" style="stop-color:#5DB130"/>
								<stop  offset="0.7709" style="stop-color:#45AC34"/>
								<stop  offset="1" style="stop-color:#3AAA35"/>
							</radialGradient>
							
								<path style="fill-rule:evenodd;clip-rule:evenodd;fill:url(#SVGID_00000178200092573642450860000001856406920957605558_);" d="
								M172.3,56.26c1.62-4.61,2.37-8.53,2.39-8.95c-0.44,0.11-6,0.89-10.69,3.29c-4.5,2.3-9.61,6.1-8.42,11.14
								c0.47-0.22,8.23-3.17,8.23-3.17c-0.04,0.17-2.69,8.22-2.73,8.64C167.53,66.2,170.74,60.7,172.3,56.26z"/>
							
								<radialGradient id="SVGID_00000167371262536727879330000006102951710821764224_" cx="107.138" cy="68.174" r="120.9338" gradientUnits="userSpaceOnUse">
								<stop  offset="0" style="stop-color:#95C11F"/>
								<stop  offset="0.1913" style="stop-color:#7EBA28"/>
								<stop  offset="0.4931" style="stop-color:#5DB130"/>
								<stop  offset="0.7709" style="stop-color:#45AC34"/>
								<stop  offset="1" style="stop-color:#3AAA35"/>
							</radialGradient>
							
								<path style="fill-rule:evenodd;clip-rule:evenodd;fill:url(#SVGID_00000167371262536727879330000006102951710821764224_);" d="
								M46.58,50.01c-4.61-1.62-8.53-2.37-8.95-2.39c0.11,0.44,0.89,6,3.29,10.69c2.3,4.5,6.1,9.61,11.14,8.42
								c-0.22-0.47-3.17-8.23-3.17-8.23c0.17,0.04,8.22,2.69,8.64,2.73C56.52,54.78,51.02,51.57,46.58,50.01z"/>
						</g>
						
							<radialGradient id="SVGID_00000167387171307650186930000012354445963443249560_" cx="107.1378" cy="68.1738" r="120.9346" gradientUnits="userSpaceOnUse">
							<stop  offset="0" style="stop-color:#95C11F"/>
							<stop  offset="0.1913" style="stop-color:#7EBA28"/>
							<stop  offset="0.4931" style="stop-color:#5DB130"/>
							<stop  offset="0.7709" style="stop-color:#45AC34"/>
							<stop  offset="1" style="stop-color:#3AAA35"/>
						</radialGradient>
						
							<path style="fill-rule:evenodd;clip-rule:evenodd;fill:url(#SVGID_00000167387171307650186930000012354445963443249560_);" d="
							M67.18,100.61c-1.98,3.79-3.13,7.09-3.2,7.45c0.4-0.04,5.31-0.01,9.67-1.5c4.19-1.42,9.09-4.07,8.7-8.58
							c-0.44,0.13-7.53,1.71-7.53,1.7c0.06-0.15,3.37-6.78,3.45-7.14C72.56,92.61,69.09,96.97,67.18,100.61z"/>
						<g>
							
								<radialGradient id="SVGID_00000119806444996975693370000006802407374274382235_" cx="107.1377" cy="68.1741" r="120.9338" gradientUnits="userSpaceOnUse">
								<stop  offset="0" style="stop-color:#95C11F"/>
								<stop  offset="0.1913" style="stop-color:#7EBA28"/>
								<stop  offset="0.4931" style="stop-color:#5DB130"/>
								<stop  offset="0.7709" style="stop-color:#45AC34"/>
								<stop  offset="1" style="stop-color:#3AAA35"/>
							</radialGradient>
							
								<path style="fill-rule:evenodd;clip-rule:evenodd;fill:url(#SVGID_00000119806444996975693370000006802407374274382235_);" d="
								M153.5,45.6c2.76-7.89,4.05-14.58,4.08-15.3c-0.75,0.19-10.25,1.52-18.28,5.63c-7.69,3.93-16.42,10.43-14.39,19.03
								c0.81-0.38,14.07-5.42,14.07-5.42c-0.07,0.3-4.6,14.05-4.66,14.77C145.35,62.59,150.84,53.19,153.5,45.6z"/>
							
								<radialGradient id="SVGID_00000178196657149556861330000014391074837083657863_" cx="107.1378" cy="68.1743" r="120.9338" gradientUnits="userSpaceOnUse">
								<stop  offset="0" style="stop-color:#95C11F"/>
								<stop  offset="0.1913" style="stop-color:#7EBA28"/>
								<stop  offset="0.4931" style="stop-color:#5DB130"/>
								<stop  offset="0.7709" style="stop-color:#45AC34"/>
								<stop  offset="1" style="stop-color:#3AAA35"/>
							</radialGradient>
							
								<path style="fill-rule:evenodd;clip-rule:evenodd;fill:url(#SVGID_00000178196657149556861330000014391074837083657863_);" d="
								M70.03,34.91c-7.88-2.77-14.58-4.05-15.3-4.08c0.19,0.75,1.52,10.25,5.63,18.28C64.3,56.8,70.79,65.53,79.4,63.5
								c-0.38-0.81-5.42-14.07-5.42-14.07c0.3,0.07,14.05,4.6,14.77,4.66C87.02,43.06,77.62,37.57,70.03,34.91z"/>
						</g>
					</g>
				</g>
			</g>
			<g>
				<g>
					
						<radialGradient id="SVGID_00000085233107613222727610000016219080432269642919_" cx="108.298" cy="81.8581" r="96.0455" gradientUnits="userSpaceOnUse">
						<stop  offset="0" style="stop-color:#B17F4A"/>
						<stop  offset="0.1421" style="stop-color:#A06D3A"/>
						<stop  offset="0.3844" style="stop-color:#875726"/>
						<stop  offset="0.6148" style="stop-color:#76471A"/>
						<stop  offset="0.8259" style="stop-color:#6C3F13"/>
						<stop  offset="1" style="stop-color:#683C11"/>
					</radialGradient>
					<path style="fill-rule:evenodd;clip-rule:evenodd;fill:url(#SVGID_00000085233107613222727610000016219080432269642919_);" d="
						M102.83,87.26c-6.9-11.76-18.46-14.49-28.1-17.53c-1.19-0.37-3.8-0.63-4.79-1.45c23.29,19.52,32.86,29.34,38.82,55.15
						C109.79,127.86,111.27,101.63,102.83,87.26z"/>
					
						<radialGradient id="SVGID_00000124151909297988161190000014564941383744991421_" cx="279.9632" cy="122.8002" r="0.1396" fx="280.1028" fy="122.799" gradientUnits="userSpaceOnUse">
						<stop  offset="0" style="stop-color:#B17F4A"/>
						<stop  offset="0" style="stop-color:#A06D3A"/>
						<stop  offset="0" style="stop-color:#875726"/>
						<stop  offset="0" style="stop-color:#76471A"/>
						<stop  offset="0" style="stop-color:#6C3F13"/>
						<stop  offset="0" style="stop-color:#683C11"/>
						<stop  offset="0.7714" style="stop-color:#88562C"/>
						<stop  offset="1" style="stop-color:#936037"/>
					</radialGradient>
					<path style="fill-rule:evenodd;clip-rule:evenodd;fill:url(#SVGID_00000124151909297988161190000014564941383744991421_);" d="
						M117.53,82.62c5.21-8.88,13.94-10.95,21.23-13.24c0.9-0.28,2.87-0.48,3.62-1.09c-17.74,14.87-24.84,22.27-29.32,41.65
						C112.27,113.29,111.16,93.47,117.53,82.62z"/>
				</g>
				
					<radialGradient id="SVGID_00000071521044489016932430000006569273104398915757_" cx="108.2981" cy="81.858" r="96.045" gradientUnits="userSpaceOnUse">
					<stop  offset="0" style="stop-color:#683C11"/>
					<stop  offset="0.1913" style="stop-color:#75461B"/>
					<stop  offset="0.4931" style="stop-color:#855429"/>
					<stop  offset="0.7709" style="stop-color:#8F5C33"/>
					<stop  offset="1" style="stop-color:#936037"/>
				</radialGradient>
				<path style="fill-rule:evenodd;clip-rule:evenodd;fill:url(#SVGID_00000071521044489016932430000006569273104398915757_);" d="
					M113.95,68.28c0,4.31-3.49,7.8-7.8,7.8c-4.3,0-7.8-3.49-7.8-7.8c0-4.31,3.49-7.8,7.8-7.8
					C110.46,60.49,113.95,63.98,113.95,68.28z"/>
			</g>
		</g>
	</g>
	<g>
		<path d="M235.02,91c-1.91,0-3.8-0.27-5.68-0.82s-3.89-1.35-6.04-2.41V81.5h0.23c0.52,0.58,1.06,1.18,1.64,1.82
			c1.73,1.85,3.39,3.29,4.98,4.32c1.59,1.03,3.33,1.55,5.2,1.55c1.91,0,3.48-0.51,4.7-1.55c1.23-1.03,1.84-2.41,1.84-4.14
			c0-1.24-0.35-2.33-1.05-3.25c-0.7-0.92-1.65-1.7-2.86-2.34c-1.21-0.64-2.77-1.29-4.68-1.95l-0.23-0.09
			c-2.24-0.73-4.08-1.55-5.52-2.45c-1.44-0.91-2.55-1.95-3.32-3.14c-0.77-1.18-1.16-2.5-1.16-3.95c0-1.61,0.45-3.09,1.34-4.45
			c0.89-1.36,2.2-2.46,3.93-3.3c1.73-0.83,3.76-1.25,6.09-1.25c1.91,0,3.77,0.27,5.57,0.82c1.8,0.55,3.57,1.23,5.29,2.05v5.95h-0.18
			c-0.36-0.39-0.73-0.79-1.09-1.18c-0.36-0.39-0.74-0.76-1.14-1.09c-1.61-1.55-3.14-2.72-4.61-3.52c-1.47-0.8-2.96-1.2-4.48-1.2
			c-1.21,0-2.3,0.22-3.25,0.66c-0.95,0.44-1.69,1.05-2.2,1.82c-0.52,0.77-0.77,1.61-0.77,2.52c0,0.88,0.26,1.69,0.77,2.43
			c0.51,0.74,1.23,1.4,2.16,1.98c0.92,0.58,2.11,1.17,3.57,1.77c0.76,0.33,1.73,0.7,2.91,1.09c3.3,1.18,5.7,2.61,7.2,4.3
			s2.25,3.66,2.25,5.93c0,2.06-0.52,3.8-1.55,5.2c-1.03,1.41-2.41,2.45-4.14,3.14C239.02,90.66,237.11,91,235.02,91z"/>
		<path d="M256.83,90.86c-1.48,0-2.78-0.32-3.89-0.95c-1.11-0.64-1.95-1.48-2.52-2.52s-0.86-2.16-0.86-3.34
			c0-1.67,0.55-3.1,1.64-4.3c1.09-1.2,2.56-2.04,4.41-2.52c1.85-0.48,3.83-0.58,5.95-0.27c0.64,0.09,1.21,0.2,1.73,0.34
			s0.93,0.29,1.25,0.45c0.32,0.17,0.48,0.33,0.48,0.48l0.18,0.27c0.06-0.06,0.01-0.05-0.16,0.02c-0.17,0.08-0.42,0.14-0.75,0.18
			s-0.73,0.04-1.18-0.02c-1.76-0.33-3.29-0.32-4.59,0.05s-2.29,0.98-2.98,1.84c-0.68,0.86-1.02,1.84-1.02,2.93
			c0,1.36,0.46,2.49,1.36,3.39c0.91,0.89,2.01,1.34,3.32,1.34c1.12,0,2.18-0.36,3.18-1.09c1-0.73,1.82-1.74,2.45-3.04l0.18,0.82
			c-0.21,0.85-0.66,1.73-1.34,2.64c-0.68,0.91-1.6,1.69-2.75,2.34C259.77,90.54,258.41,90.86,256.83,90.86z M251.06,69.41
			c1.64-0.61,3.26-1.06,4.86-1.36c1.61-0.3,3.03-0.45,4.27-0.45c2.64,0,4.67,0.63,6.09,1.89c1.42,1.26,2.14,2.98,2.14,5.16v11.05
			c0,1.15,0.24,1.92,0.73,2.32c0.48,0.39,1.21,0.41,2.18,0.05l0.05,0.14c-0.27,0.79-0.73,1.4-1.36,1.84
			c-0.64,0.44-1.41,0.66-2.32,0.66c-1.24,0-2.22-0.39-2.93-1.16c-0.71-0.77-1.07-1.84-1.07-3.2V74.5c0-1.79-0.34-3.11-1.02-3.95
			c-0.68-0.85-1.58-1.27-2.7-1.27c-1.18,0-2.55,0.52-4.09,1.55c-1.55,1.03-3.11,2.33-4.68,3.91h-0.14V69.41z"/>
		<path d="M282.6,67.64c1.67,0,3.16,0.44,4.48,1.32c1.32,0.88,2.33,2.15,3.02,3.82v1.18c-0.67-1.06-1.49-1.93-2.48-2.61
			c-0.99-0.68-2.08-1.02-3.29-1.02c-1.24,0-2.33,0.37-3.25,1.11c-0.92,0.74-1.62,1.77-2.09,3.09c-0.47,1.32-0.71,2.87-0.71,4.66
			c0,2.64,0.48,4.82,1.43,6.55c0.96,1.73,2.39,2.59,4.3,2.59c1.18,0,2.26-0.35,3.25-1.05c0.98-0.7,1.92-1.67,2.79-2.91l-0.14,1.45
			c-0.91,1.73-2.03,3-3.36,3.82c-1.33,0.82-2.79,1.23-4.36,1.23c-1.67,0-3.18-0.45-4.54-1.34c-1.36-0.89-2.46-2.2-3.27-3.93
			c-0.82-1.73-1.23-3.8-1.23-6.23c0-2.48,0.43-4.62,1.29-6.41c0.86-1.79,2.02-3.12,3.48-4C279.38,68.08,280.94,67.64,282.6,67.64z
			 M290.29,90.5c-0.06-0.21-0.12-0.42-0.18-0.61c-0.06-0.2-0.14-0.39-0.23-0.57c-0.24-0.7-0.45-1.4-0.61-2.11
			c-0.17-0.71-0.25-1.58-0.25-2.61V63.91c0-2.03-0.39-3.94-1.18-5.73c-0.06-0.21-0.14-0.38-0.23-0.5V57.5l1.23-0.14l4.91-0.68v27.23
			c0,1,0.08,1.95,0.23,2.84c0.15,0.89,0.35,1.86,0.59,2.89l0.18,0.73v0.14h-1H290.29z"/>
		<path d="M305.28,90.86c-1.48,0-2.78-0.32-3.89-0.95c-1.11-0.64-1.95-1.48-2.52-2.52c-0.58-1.05-0.86-2.16-0.86-3.34
			c0-1.67,0.55-3.1,1.64-4.3c1.09-1.2,2.56-2.04,4.41-2.52c1.85-0.48,3.83-0.58,5.95-0.27c0.64,0.09,1.21,0.2,1.73,0.34
			c0.51,0.14,0.93,0.29,1.25,0.45c0.32,0.17,0.48,0.33,0.48,0.48l0.18,0.27c0.06-0.06,0.01-0.05-0.16,0.02
			c-0.17,0.08-0.42,0.14-0.75,0.18c-0.33,0.05-0.73,0.04-1.18-0.02c-1.76-0.33-3.29-0.32-4.59,0.05c-1.3,0.36-2.3,0.98-2.98,1.84
			c-0.68,0.86-1.02,1.84-1.02,2.93c0,1.36,0.45,2.49,1.36,3.39c0.91,0.89,2.01,1.34,3.32,1.34c1.12,0,2.18-0.36,3.18-1.09
			c1-0.73,1.82-1.74,2.45-3.04l0.18,0.82c-0.21,0.85-0.66,1.73-1.34,2.64c-0.68,0.91-1.6,1.69-2.75,2.34
			C308.22,90.54,306.86,90.86,305.28,90.86z M299.51,69.41c1.64-0.61,3.26-1.06,4.86-1.36c1.61-0.3,3.03-0.45,4.27-0.45
			c2.64,0,4.67,0.63,6.09,1.89c1.42,1.26,2.14,2.98,2.14,5.16v11.05c0,1.15,0.24,1.92,0.73,2.32c0.48,0.39,1.21,0.41,2.18,0.05
			l0.05,0.14c-0.27,0.79-0.73,1.4-1.36,1.84c-0.64,0.44-1.41,0.66-2.32,0.66c-1.24,0-2.22-0.39-2.93-1.16
			c-0.71-0.77-1.07-1.84-1.07-3.2V74.5c0-1.79-0.34-3.11-1.02-3.95c-0.68-0.85-1.58-1.27-2.7-1.27c-1.18,0-2.54,0.52-4.09,1.55
			c-1.54,1.03-3.11,2.33-4.68,3.91h-0.14V69.41z"/>
		<path d="M323.28,90.5h-1v-0.14l0.18-0.73c0.24-1.03,0.44-1.99,0.59-2.89c0.15-0.89,0.23-1.84,0.23-2.84v-20
			c0-1.06-0.08-2.05-0.25-2.95c-0.17-0.91-0.39-1.79-0.66-2.64c-0.09-0.33-0.17-0.56-0.23-0.68l-0.04-0.14l0.95-0.14l4.95-0.68
			v27.23c0,1,0.07,1.95,0.21,2.84c0.14,0.89,0.33,1.86,0.57,2.89l0.18,0.73v0.14h-0.96H323.28z M329.78,79.45l-1-1.18l5-4.45
			c1.12-0.97,1.83-1.89,2.11-2.75c0.29-0.86,0.31-1.67,0.07-2.43c-0.06-0.27-0.12-0.47-0.18-0.59v-0.18h3h4.14v0.18L329.78,79.45z
			 M337.56,90.5l-8.73-12.18l3.77-2.41l10.64,14.41v0.18H337.56z"/>
		<path d="M352.37,90.86c-1.48,0-2.78-0.32-3.89-0.95c-1.11-0.64-1.95-1.48-2.52-2.52c-0.58-1.05-0.86-2.16-0.86-3.34
			c0-1.67,0.55-3.1,1.64-4.3c1.09-1.2,2.56-2.04,4.41-2.52c1.85-0.48,3.83-0.58,5.95-0.27c0.64,0.09,1.21,0.2,1.73,0.34
			c0.51,0.14,0.93,0.29,1.25,0.45c0.32,0.17,0.48,0.33,0.48,0.48l0.18,0.27c0.06-0.06,0.01-0.05-0.16,0.02
			c-0.17,0.08-0.42,0.14-0.75,0.18c-0.33,0.05-0.73,0.04-1.18-0.02c-1.76-0.33-3.29-0.32-4.59,0.05c-1.3,0.36-2.3,0.98-2.98,1.84
			c-0.68,0.86-1.02,1.84-1.02,2.93c0,1.36,0.45,2.49,1.36,3.39c0.91,0.89,2.01,1.34,3.32,1.34c1.12,0,2.18-0.36,3.18-1.09
			c1-0.73,1.82-1.74,2.45-3.04l0.18,0.82c-0.21,0.85-0.66,1.73-1.34,2.64c-0.68,0.91-1.6,1.69-2.75,2.34
			C355.31,90.54,353.95,90.86,352.37,90.86z M346.6,69.41c1.64-0.61,3.26-1.06,4.86-1.36c1.61-0.3,3.03-0.45,4.27-0.45
			c2.64,0,4.67,0.63,6.09,1.89c1.42,1.26,2.14,2.98,2.14,5.16v11.05c0,1.15,0.24,1.92,0.73,2.32c0.48,0.39,1.21,0.41,2.18,0.05
			l0.05,0.14c-0.27,0.79-0.73,1.4-1.36,1.84c-0.64,0.44-1.41,0.66-2.32,0.66c-1.24,0-2.22-0.39-2.93-1.16
			c-0.71-0.77-1.07-1.84-1.07-3.2V74.5c0-1.79-0.34-3.11-1.02-3.95c-0.68-0.85-1.58-1.27-2.7-1.27c-1.18,0-2.54,0.52-4.09,1.55
			c-1.54,1.03-3.11,2.33-4.68,3.91h-0.14V69.41z"/>
		<path d="M389.64,90.86c-1.91,0-3.68-0.45-5.32-1.36c-1.64-0.91-2.95-2.24-3.93-4c-0.99-1.76-1.48-3.86-1.48-6.32
			c0-2.39,0.46-4.46,1.39-6.2c0.92-1.74,2.22-3.08,3.89-4c1.67-0.92,3.55-1.39,5.64-1.39c1.18,0,2.29,0.14,3.34,0.41
			c1.04,0.27,2.16,0.67,3.34,1.18c0.54,0.24,0.98,0.44,1.32,0.59l0.09,5.68h-0.23c-1.03-1.73-2.19-3.2-3.48-4.43
			c-1.29-1.23-2.72-1.84-4.29-1.84c-1.27,0-2.34,0.39-3.21,1.18c-0.86,0.79-1.52,1.86-1.98,3.2c-0.46,1.35-0.68,2.84-0.68,4.48
			c0.03,1.91,0.34,3.58,0.93,5.02c0.59,1.44,1.45,2.56,2.59,3.36c1.14,0.8,2.51,1.2,4.11,1.2c2.48,0,4.86-1,7.14-3l0.14,0.09
			c-0.52,1.18-1.23,2.24-2.14,3.18c-0.91,0.94-1.97,1.67-3.18,2.18C392.43,90.6,391.1,90.86,389.64,90.86z"/>
		<path d="M403.19,90.5h-1v-0.14l0.18-0.73c0.24-1.03,0.44-1.99,0.59-2.89c0.15-0.89,0.23-1.84,0.23-2.84v-20
			c0-1.06-0.08-2.05-0.25-2.95c-0.17-0.91-0.37-1.79-0.61-2.64c-0.12-0.33-0.21-0.56-0.27-0.68l-0.04-0.14l1-0.14l4.86-0.68v27.23
			c0,1,0.08,1.95,0.23,2.84c0.15,0.89,0.35,1.86,0.59,2.89l0.18,0.73v0.14h-1H403.19z M417.96,90.5h-1v-0.14l0.18-0.73
			c0.24-1.03,0.44-1.99,0.59-2.89c0.15-0.89,0.23-1.84,0.23-2.84v-8c0-1.73-0.46-3.03-1.36-3.91c-0.91-0.88-2.06-1.32-3.45-1.32
			c-2.09,0-4.17,1.08-6.23,3.23l0.09-1.09c1.09-1.7,2.32-2.99,3.68-3.89c1.36-0.89,2.88-1.34,4.54-1.34c2.09,0,3.85,0.64,5.27,1.93
			c1.42,1.29,2.14,3.22,2.14,5.8v8.59c0,1,0.08,1.95,0.23,2.84c0.15,0.89,0.35,1.86,0.59,2.89l0.18,0.73v0.14h-1H417.96z"/>
		<path d="M434.05,90.86c-1.48,0-2.78-0.32-3.89-0.95c-1.11-0.64-1.95-1.48-2.52-2.52c-0.58-1.05-0.86-2.16-0.86-3.34
			c0-1.67,0.55-3.1,1.64-4.3c1.09-1.2,2.56-2.04,4.41-2.52c1.85-0.48,3.83-0.58,5.95-0.27c0.64,0.09,1.21,0.2,1.73,0.34
			c0.51,0.14,0.93,0.29,1.25,0.45c0.32,0.17,0.48,0.33,0.48,0.48l0.18,0.27c0.06-0.06,0.01-0.05-0.16,0.02
			c-0.17,0.08-0.42,0.14-0.75,0.18c-0.33,0.05-0.73,0.04-1.18-0.02c-1.76-0.33-3.29-0.32-4.59,0.05c-1.3,0.36-2.3,0.98-2.98,1.84
			c-0.68,0.86-1.02,1.84-1.02,2.93c0,1.36,0.45,2.49,1.36,3.39c0.91,0.89,2.01,1.34,3.32,1.34c1.12,0,2.18-0.36,3.18-1.09
			c1-0.73,1.82-1.74,2.45-3.04l0.18,0.82c-0.21,0.85-0.66,1.73-1.34,2.64c-0.68,0.91-1.6,1.69-2.75,2.34
			C436.99,90.54,435.63,90.86,434.05,90.86z M428.28,69.41c1.64-0.61,3.26-1.06,4.86-1.36c1.61-0.3,3.03-0.45,4.27-0.45
			c2.64,0,4.67,0.63,6.09,1.89c1.42,1.26,2.14,2.98,2.14,5.16v11.05c0,1.15,0.24,1.92,0.73,2.32c0.48,0.39,1.21,0.41,2.18,0.05
			l0.05,0.14c-0.27,0.79-0.73,1.4-1.36,1.84c-0.64,0.44-1.41,0.66-2.32,0.66c-1.24,0-2.22-0.39-2.93-1.16
			c-0.71-0.77-1.07-1.84-1.07-3.2V74.5c0-1.79-0.34-3.11-1.02-3.95c-0.68-0.85-1.58-1.27-2.7-1.27c-1.18,0-2.54,0.52-4.09,1.55
			c-1.54,1.03-3.11,2.33-4.68,3.91h-0.14V69.41z"/>
		<path d="M451.82,90.5h-0.95v-0.14l0.18-0.73c0.24-1.03,0.43-1.99,0.57-2.89c0.14-0.89,0.2-1.84,0.2-2.84v-9.45
			c0-1-0.07-1.95-0.2-2.84c-0.14-0.89-0.33-1.86-0.57-2.89L450.87,68v-0.14h0.95h4.73v16.04c0,1,0.07,1.95,0.2,2.84
			c0.14,0.89,0.34,1.86,0.61,2.89l0.14,0.73v0.14h-0.95H451.82z M456,72.86c0.55-1.33,1.29-2.45,2.23-3.36
			c0.94-0.91,2.06-1.53,3.36-1.86c1.3-0.33,2.68-0.27,4.14,0.18L465,73.09h-0.18c-0.79-0.73-1.68-1.25-2.68-1.57
			c-1-0.32-2.04-0.34-3.11-0.07c-1.08,0.27-2.05,0.92-2.93,1.95L456,72.86z"/>
		<path d="M471.82,63c-0.88,0-1.64-0.31-2.29-0.93c-0.65-0.62-0.98-1.37-0.98-2.25c0-0.91,0.32-1.67,0.95-2.3
			c0.64-0.62,1.41-0.93,2.32-0.93s1.68,0.31,2.32,0.93c0.64,0.62,0.95,1.39,0.95,2.3c0,0.88-0.33,1.63-0.98,2.25
			C473.46,62.69,472.7,63,471.82,63z M469.69,90.5h-0.96v-0.14l0.14-0.73c0.27-1.03,0.48-1.99,0.61-2.89
			c0.14-0.89,0.21-1.84,0.21-2.84l0.04-9.45c0-1-0.08-1.95-0.23-2.84c-0.15-0.89-0.35-1.86-0.59-2.89L468.73,68v-0.14h1h4.64v16.04
			c0,1,0.08,1.95,0.23,2.84c0.15,0.89,0.35,1.86,0.59,2.89l0.14,0.73v0.14h-0.95H469.69z"/>
		<path d="M486.73,90.86c-1.73,0-3.08-0.58-4.05-1.73c-0.97-1.15-1.45-2.71-1.45-4.68V69.59h-3.32v-1.36
			c1.91-0.64,3.44-1.55,4.59-2.73c1.15-1.18,2.14-2.62,2.95-4.32h0.46l0.04,22.68c0,1.27,0.28,2.23,0.84,2.86
			c0.56,0.64,1.37,0.95,2.43,0.95c1.33,0,2.68-0.44,4.04-1.32c-0.61,1.33-1.47,2.42-2.59,3.25
			C489.56,90.45,488.25,90.86,486.73,90.86z M480.14,69.59v-1.27l2.27-0.45h9.82v1.73H480.14z"/>
		<path d="M497.82,73.82c-0.42-1-0.89-1.95-1.39-2.84c-0.5-0.89-0.99-1.66-1.48-2.3c-0.12-0.12-0.23-0.23-0.32-0.34
			c-0.09-0.11-0.18-0.22-0.27-0.34v-0.14h6.5h1.86V68l-0.18,0.45c-0.24,0.79-0.36,1.61-0.34,2.48c0.01,0.86,0.25,1.78,0.7,2.75
			l5.36,12.45l-1.41,3.04l-1.27,2.23L497.82,73.82z M495.59,98.64l1-4.64l0.09-0.05c0.91,0.88,1.86,1.52,2.86,1.93
			s1.94,0.45,2.82,0.14c0.88-0.32,1.58-1.1,2.09-2.34l7.91-19.91c0.73-1.82,0.8-3.59,0.23-5.32L512.41,68v-0.14h1.86h2.82V68
			l-0.23,0.41c-0.97,1.55-1.73,3-2.27,4.36l-8.68,21.73c-1,2.51-2.36,4.08-4.09,4.7C500.09,99.82,498.02,99.64,495.59,98.64z"/>
		<path d="M257.4,107.32v-0.86h7.86v0.86H257.4z M259.26,117.77h-0.5v-0.07l0.09-0.36c0.12-0.51,0.22-1,0.3-1.44
			c0.08-0.45,0.11-0.92,0.11-1.42v-8.95c0-1.64,0.33-2.81,1-3.51s1.55-1.06,2.66-1.06c0.47,0,0.95,0.06,1.45,0.17
			c0.5,0.11,1.03,0.28,1.59,0.49v2.18h-0.11c-0.55-0.65-1.06-1.16-1.53-1.52s-0.92-0.55-1.33-0.55c-0.46,0-0.78,0.2-0.99,0.6
			c-0.2,0.4-0.33,1.03-0.38,1.9c-0.01,0.18-0.02,0.38-0.02,0.58s0,0.41,0,0.62v9.05c0,0.5,0.04,0.97,0.11,1.42
			c0.08,0.45,0.17,0.93,0.3,1.44l0.07,0.36v0.07h-0.48H259.26z"/>
		<path d="M272.06,117.95c-1.03,0-1.97-0.23-2.83-0.7c-0.86-0.47-1.53-1.15-2.02-2.03c-0.49-0.89-0.74-1.93-0.74-3.12
			c0-1.2,0.25-2.23,0.74-3.1c0.49-0.87,1.17-1.53,2.02-1.99c0.86-0.45,1.8-0.68,2.83-0.68c1.04,0,1.99,0.23,2.84,0.69
			c0.85,0.46,1.53,1.13,2.03,2s0.76,1.9,0.76,3.08c0,1.2-0.25,2.24-0.76,3.12s-1.19,1.56-2.04,2.03S273.09,117.95,272.06,117.95z
			 M272.06,117.16c0.62,0,1.16-0.23,1.62-0.69s0.81-1.07,1.04-1.82c0.23-0.75,0.34-1.6,0.34-2.56c0-0.94-0.11-1.78-0.34-2.52
			c-0.23-0.74-0.57-1.34-1.02-1.78c-0.46-0.45-1-0.67-1.64-0.67c-0.62,0-1.15,0.22-1.6,0.67c-0.45,0.45-0.79,1.04-1.01,1.78
			s-0.34,1.58-0.34,2.52c0,0.95,0.11,1.81,0.34,2.56s0.56,1.36,1.01,1.82S271.44,117.16,272.06,117.16z"/>
		<path d="M279.67,117.77h-0.48v-0.07l0.09-0.36c0.12-0.51,0.22-1,0.28-1.44c0.07-0.45,0.1-0.92,0.1-1.42v-4.73
			c0-0.5-0.03-0.97-0.1-1.42c-0.07-0.45-0.16-0.93-0.28-1.44l-0.09-0.36v-0.07h0.48h2.36v8.02c0,0.5,0.03,0.97,0.1,1.42
			c0.07,0.45,0.17,0.93,0.31,1.44l0.07,0.36v0.07h-0.48H279.67z M281.76,108.95c0.27-0.67,0.64-1.23,1.11-1.68
			c0.47-0.45,1.03-0.76,1.68-0.93c0.65-0.17,1.34-0.14,2.07,0.09l-0.36,2.64h-0.09c-0.39-0.36-0.84-0.62-1.34-0.78
			s-1.02-0.17-1.56-0.03s-1.03,0.46-1.47,0.98L281.76,108.95z"/>
		<path d="M297.49,117.95c-1.33,0-2.75-0.36-4.25-1.07v-2.66h0.07c0.12,0.15,0.32,0.37,0.59,0.66c0.67,0.7,1.29,1.24,1.88,1.64
			c0.58,0.39,1.21,0.59,1.88,0.59c0.56,0,1.05-0.16,1.48-0.47c0.42-0.31,0.64-0.75,0.64-1.31c0-0.53-0.2-0.94-0.6-1.23
			c-0.4-0.29-1.07-0.6-2.01-0.93l-0.34-0.14l-0.09-0.02c-0.86-0.3-1.54-0.6-2.03-0.89c-0.49-0.29-0.88-0.64-1.17-1.06
			c-0.29-0.42-0.43-0.91-0.43-1.49c0-1.01,0.4-1.81,1.21-2.4c0.8-0.58,1.83-0.88,3.09-0.88c1.3,0,2.61,0.31,3.91,0.93v2.5h-0.09
			l-0.04-0.07c-0.71-0.82-1.38-1.45-1.99-1.89c-0.61-0.44-1.27-0.66-1.97-0.66c-0.58,0-1.07,0.14-1.48,0.43s-0.61,0.68-0.61,1.18
			c0,0.35,0.11,0.64,0.33,0.88c0.22,0.24,0.51,0.43,0.89,0.59c0.37,0.16,0.9,0.35,1.6,0.58l0.23,0.09c1.26,0.42,2.16,0.91,2.7,1.44
			c0.55,0.54,0.82,1.25,0.82,2.12c0,0.77-0.19,1.42-0.57,1.94s-0.89,0.91-1.52,1.17C298.94,117.82,298.25,117.95,297.49,117.95z"/>
		<path d="M308.63,117.95c-1.03,0-1.97-0.23-2.83-0.7c-0.86-0.47-1.53-1.15-2.02-2.03s-0.74-1.93-0.74-3.12
			c0-1.2,0.25-2.23,0.74-3.1c0.49-0.87,1.17-1.53,2.02-1.99c0.86-0.45,1.8-0.68,2.83-0.68c1.04,0,1.99,0.23,2.84,0.69
			s1.53,1.13,2.03,2c0.51,0.87,0.76,1.9,0.76,3.08c0,1.2-0.25,2.24-0.76,3.12c-0.51,0.89-1.19,1.56-2.05,2.03
			C310.6,117.72,309.66,117.95,308.63,117.95z M308.63,117.16c0.62,0,1.16-0.23,1.62-0.69c0.46-0.46,0.81-1.07,1.03-1.82
			s0.34-1.6,0.34-2.56c0-0.94-0.11-1.78-0.34-2.52s-0.57-1.34-1.02-1.78c-0.46-0.45-1-0.67-1.64-0.67c-0.62,0-1.16,0.22-1.6,0.67
			c-0.45,0.45-0.78,1.04-1.01,1.78c-0.23,0.74-0.34,1.58-0.34,2.52c0,0.95,0.11,1.81,0.34,2.56c0.23,0.75,0.56,1.36,1.01,1.82
			C307.47,116.93,308,117.16,308.63,117.16z"/>
		<path d="M320.81,117.95c-0.95,0-1.84-0.23-2.66-0.68c-0.82-0.45-1.47-1.12-1.97-2s-0.74-1.93-0.74-3.16c0-1.2,0.23-2.23,0.69-3.1
			c0.46-0.87,1.11-1.54,1.94-2c0.83-0.46,1.77-0.69,2.82-0.69c0.59,0,1.15,0.07,1.67,0.2s1.08,0.33,1.67,0.59
			c0.27,0.12,0.49,0.22,0.66,0.3l0.05,2.84h-0.11c-0.51-0.86-1.09-1.6-1.74-2.22c-0.64-0.61-1.36-0.92-2.15-0.92
			c-0.64,0-1.17,0.2-1.6,0.59c-0.43,0.39-0.76,0.93-0.99,1.6c-0.23,0.67-0.34,1.42-0.34,2.24c0.01,0.96,0.17,1.79,0.47,2.51
			c0.29,0.72,0.73,1.28,1.29,1.68c0.57,0.4,1.25,0.6,2.06,0.6c1.24,0,2.43-0.5,3.57-1.5l0.07,0.04c-0.26,0.59-0.61,1.12-1.07,1.59
			c-0.45,0.47-0.98,0.83-1.59,1.09C322.2,117.82,321.53,117.95,320.81,117.95z"/>
		<path d="M328.76,104.02c-0.44,0-0.82-0.16-1.15-0.47c-0.33-0.31-0.49-0.69-0.49-1.12c0-0.45,0.16-0.84,0.48-1.15
			c0.32-0.31,0.7-0.47,1.16-0.47c0.45,0,0.84,0.16,1.16,0.47c0.32,0.31,0.48,0.69,0.48,1.15c0,0.44-0.16,0.81-0.49,1.12
			C329.58,103.87,329.2,104.02,328.76,104.02z M327.69,117.77h-0.48v-0.07l0.07-0.36c0.14-0.51,0.24-1,0.31-1.44
			c0.07-0.45,0.1-0.92,0.1-1.42l0.02-4.73c0-0.5-0.04-0.97-0.11-1.42c-0.08-0.45-0.17-0.93-0.3-1.44l-0.09-0.36v-0.07h0.5h2.32v8.02
			c0,0.5,0.04,0.97,0.11,1.42c0.08,0.45,0.17,0.93,0.3,1.44l0.07,0.36v0.07h-0.48H327.69z"/>
		<path d="M335.87,117.95c-0.74,0-1.39-0.16-1.94-0.48c-0.55-0.32-0.97-0.74-1.26-1.26c-0.29-0.52-0.43-1.08-0.43-1.67
			c0-0.83,0.27-1.55,0.82-2.15c0.55-0.6,1.28-1.02,2.21-1.26c0.92-0.24,1.92-0.29,2.98-0.14c0.32,0.04,0.61,0.1,0.86,0.17
			c0.26,0.07,0.47,0.14,0.62,0.23c0.16,0.08,0.24,0.16,0.24,0.24l0.09,0.14c0.03-0.03,0-0.03-0.08,0.01
			c-0.08,0.04-0.21,0.07-0.38,0.09c-0.17,0.02-0.36,0.02-0.59-0.01c-0.88-0.17-1.64-0.16-2.3,0.02c-0.65,0.18-1.15,0.49-1.49,0.92
			s-0.51,0.92-0.51,1.47c0,0.68,0.23,1.25,0.68,1.69c0.45,0.45,1.01,0.67,1.66,0.67c0.56,0,1.09-0.18,1.59-0.54s0.91-0.87,1.23-1.52
			l0.09,0.41c-0.11,0.42-0.33,0.86-0.67,1.32c-0.34,0.46-0.8,0.84-1.38,1.17C337.34,117.79,336.66,117.95,335.87,117.95z
			 M332.99,107.23c0.82-0.3,1.63-0.53,2.43-0.68c0.8-0.15,1.51-0.23,2.14-0.23c1.32,0,2.33,0.31,3.05,0.94
			c0.71,0.63,1.07,1.49,1.07,2.58v5.52c0,0.58,0.12,0.96,0.36,1.16c0.24,0.2,0.61,0.2,1.09,0.02l0.02,0.07
			c-0.14,0.39-0.36,0.7-0.68,0.92s-0.7,0.33-1.16,0.33c-0.62,0-1.11-0.19-1.47-0.58c-0.36-0.39-0.53-0.92-0.53-1.6v-5.91
			c0-0.89-0.17-1.55-0.51-1.98c-0.34-0.42-0.79-0.64-1.35-0.64c-0.59,0-1.27,0.26-2.04,0.77c-0.77,0.52-1.55,1.17-2.34,1.96h-0.07
			V107.23z"/>
		<path d="M344.78,117.77h-0.5v-0.07l0.09-0.36c0.12-0.51,0.22-1,0.3-1.44c0.08-0.45,0.11-0.92,0.11-1.42v-10
			c0-0.53-0.04-1.02-0.12-1.48c-0.08-0.45-0.19-0.89-0.31-1.32c-0.06-0.17-0.11-0.28-0.14-0.34l-0.02-0.07l0.5-0.07l2.45-0.34v13.61
			c0,0.5,0.03,0.97,0.1,1.42c0.07,0.45,0.17,0.93,0.31,1.44l0.07,0.36v0.07h-0.48H344.78z"/>
		<path d="M359.03,106.34c0.83,0,1.58,0.22,2.24,0.66c0.66,0.44,1.16,1.08,1.51,1.91v0.59c-0.33-0.53-0.75-0.97-1.24-1.31
			s-1.04-0.51-1.65-0.51c-0.62,0-1.16,0.19-1.62,0.56c-0.46,0.37-0.81,0.89-1.05,1.55c-0.23,0.66-0.35,1.44-0.35,2.33
			c0,1.32,0.24,2.41,0.72,3.27c0.48,0.86,1.19,1.3,2.15,1.3c0.59,0,1.13-0.17,1.62-0.52c0.49-0.35,0.96-0.83,1.4-1.46l-0.07,0.73
			c-0.45,0.86-1.01,1.5-1.68,1.91s-1.39,0.61-2.18,0.61c-0.83,0-1.59-0.22-2.27-0.67c-0.68-0.45-1.23-1.1-1.64-1.97
			c-0.41-0.86-0.61-1.9-0.61-3.11c0-1.24,0.22-2.31,0.65-3.2c0.43-0.89,1.01-1.56,1.74-2C357.42,106.56,358.2,106.34,359.03,106.34z
			 M362.87,117.77c-0.03-0.11-0.06-0.21-0.09-0.31s-0.07-0.19-0.11-0.28c-0.12-0.35-0.22-0.7-0.31-1.06
			c-0.08-0.36-0.12-0.79-0.12-1.31v-10.34c0-1.02-0.2-1.97-0.59-2.86c-0.03-0.11-0.07-0.19-0.11-0.25v-0.09l0.61-0.07l2.45-0.34
			v13.61c0,0.5,0.04,0.97,0.11,1.42c0.08,0.45,0.17,0.93,0.3,1.44l0.09,0.36v0.07h-0.5H362.87z"/>
		<path d="M371.99,117.95c-0.97,0-1.86-0.23-2.68-0.69c-0.82-0.46-1.47-1.14-1.97-2.02c-0.49-0.89-0.74-1.93-0.74-3.12
			c0-1.15,0.23-2.17,0.69-3.04c0.46-0.88,1.1-1.56,1.91-2.03c0.81-0.48,1.73-0.72,2.76-0.72s1.91,0.24,2.65,0.72
			c0.74,0.48,1.29,1.12,1.67,1.94s0.57,1.75,0.57,2.79h-8.18l0.02-0.54l5.73-0.43c-0.03-1.14-0.25-2.03-0.66-2.69
			s-1.02-0.99-1.82-0.99c-0.91,0-1.6,0.41-2.07,1.23s-0.7,1.86-0.7,3.11c0.01,0.97,0.16,1.82,0.44,2.55
			c0.28,0.73,0.71,1.3,1.28,1.72c0.58,0.42,1.27,0.62,2.09,0.62c0.65,0,1.28-0.13,1.87-0.39c0.6-0.26,1.22-0.68,1.88-1.27l0.07,0.07
			c-0.24,0.59-0.6,1.13-1.07,1.62s-1.02,0.88-1.66,1.16C373.44,117.81,372.74,117.95,371.99,117.95z"/>
		<path d="M379.53,109.48c-0.17-0.38-0.36-0.78-0.59-1.21c-0.23-0.42-0.44-0.79-0.64-1.09c-0.21-0.3-0.38-0.52-0.5-0.66v-0.07h3.27
			h0.89v0.07c-0.01,0.05-0.04,0.12-0.07,0.23c-0.27,0.83-0.22,1.71,0.16,2.64l2.95,7.09l-0.77,1.3h-1.23L379.53,109.48z
			 M387.05,109.41c0.2-0.48,0.3-0.95,0.3-1.39c0-0.44-0.07-0.86-0.2-1.25c-0.02-0.09-0.05-0.17-0.09-0.25v-0.07h0.93h1.43v0.07
			c-0.08,0.12-0.17,0.27-0.27,0.46c-0.41,0.68-0.73,1.33-0.95,1.93l-3.52,8.86h-0.91L387.05,109.41z"/>
		<path d="M395.64,117.95c-0.97,0-1.86-0.23-2.68-0.69c-0.82-0.46-1.47-1.14-1.97-2.02c-0.49-0.89-0.74-1.93-0.74-3.12
			c0-1.15,0.23-2.17,0.69-3.04c0.46-0.88,1.1-1.56,1.91-2.03c0.81-0.48,1.73-0.72,2.76-0.72s1.91,0.24,2.65,0.72
			c0.74,0.48,1.29,1.12,1.67,1.94s0.57,1.75,0.57,2.79h-8.18l0.02-0.54l5.73-0.43c-0.03-1.14-0.25-2.03-0.66-2.69
			s-1.02-0.99-1.82-0.99c-0.91,0-1.6,0.41-2.07,1.23s-0.7,1.86-0.7,3.11c0.01,0.97,0.16,1.82,0.44,2.55
			c0.28,0.73,0.71,1.3,1.28,1.72c0.58,0.42,1.27,0.62,2.09,0.62c0.65,0,1.28-0.13,1.87-0.39c0.6-0.26,1.22-0.68,1.88-1.27l0.07,0.07
			c-0.24,0.59-0.6,1.13-1.07,1.62s-1.02,0.88-1.66,1.16C397.1,117.81,396.4,117.95,395.64,117.95z"/>
		<path d="M402.64,117.77h-0.5v-0.07l0.09-0.36c0.12-0.51,0.22-1,0.3-1.44c0.08-0.45,0.11-0.92,0.11-1.42v-10
			c0-0.53-0.04-1.02-0.12-1.48c-0.08-0.45-0.19-0.89-0.31-1.32c-0.06-0.17-0.11-0.28-0.14-0.34l-0.02-0.07l0.5-0.07l2.45-0.34v13.61
			c0,0.5,0.03,0.97,0.1,1.42c0.07,0.45,0.17,0.93,0.31,1.44l0.07,0.36v0.07h-0.48H402.64z"/>
		<path d="M412.51,117.95c-1.03,0-1.97-0.23-2.83-0.7c-0.86-0.47-1.53-1.15-2.02-2.03s-0.74-1.93-0.74-3.12
			c0-1.2,0.25-2.23,0.74-3.1c0.49-0.87,1.17-1.53,2.02-1.99c0.86-0.45,1.8-0.68,2.83-0.68c1.04,0,1.99,0.23,2.84,0.69
			s1.53,1.13,2.03,2c0.51,0.87,0.76,1.9,0.76,3.08c0,1.2-0.25,2.24-0.76,3.12c-0.51,0.89-1.19,1.56-2.05,2.03
			C414.48,117.72,413.54,117.95,412.51,117.95z M412.51,117.16c0.62,0,1.16-0.23,1.62-0.69c0.46-0.46,0.81-1.07,1.03-1.82
			s0.34-1.6,0.34-2.56c0-0.94-0.11-1.78-0.34-2.52s-0.57-1.34-1.02-1.78c-0.46-0.45-1-0.67-1.64-0.67c-0.62,0-1.16,0.22-1.6,0.67
			c-0.45,0.45-0.78,1.04-1.01,1.78c-0.23,0.74-0.34,1.58-0.34,2.52c0,0.95,0.11,1.81,0.34,2.56c0.23,0.75,0.56,1.36,1.01,1.82
			C411.35,116.93,411.88,117.16,412.51,117.16z"/>
		<path d="M420.05,122.32h-0.48v-0.07l0.09-0.36c0.12-0.51,0.22-1,0.28-1.44c0.07-0.45,0.1-0.92,0.1-1.42v-9.11
			c0-0.53-0.04-1.02-0.11-1.48c-0.08-0.45-0.18-0.89-0.32-1.32c-0.05-0.15-0.08-0.26-0.11-0.32l-0.02-0.09l0.48-0.07l2.45-0.34
			v12.73c0,0.5,0.04,0.97,0.11,1.42c0.08,0.45,0.17,0.93,0.3,1.44l0.09,0.36v0.07h-0.5H420.05z M425.37,117.93
			c-0.74,0-1.45-0.2-2.12-0.6c-0.67-0.4-1.22-1.03-1.65-1.88l0.02-0.57c0.36,0.53,0.79,0.97,1.28,1.31s1.04,0.51,1.65,0.51
			c0.65,0,1.21-0.2,1.67-0.59c0.46-0.39,0.81-0.94,1.05-1.64c0.23-0.7,0.35-1.51,0.35-2.43c0-1.26-0.24-2.29-0.73-3.11
			c-0.49-0.82-1.19-1.23-2.11-1.23c-0.58,0-1.11,0.17-1.6,0.52c-0.49,0.35-0.95,0.84-1.38,1.48l0.09-0.79
			c0.38-0.85,0.9-1.49,1.57-1.93c0.67-0.44,1.42-0.66,2.27-0.66c0.85,0,1.61,0.22,2.27,0.66s1.2,1.08,1.59,1.92
			c0.39,0.84,0.59,1.85,0.59,3.03c0,1.29-0.23,2.38-0.68,3.28c-0.46,0.9-1.05,1.58-1.78,2.03
			C426.99,117.7,426.2,117.93,425.37,117.93z"/>
		<path d="M432.26,117.77h-0.48v-0.07l0.09-0.36c0.12-0.51,0.22-1,0.28-1.44c0.07-0.45,0.1-0.92,0.1-1.42v-4.73
			c0-0.5-0.03-0.97-0.1-1.42c-0.07-0.45-0.16-0.93-0.28-1.44l-0.09-0.36v-0.07h0.48h2.34v8.02c0,0.5,0.04,0.97,0.11,1.42
			c0.08,0.45,0.17,0.93,0.3,1.44l0.07,0.36v0.07h-0.48H432.26z M439.05,117.77h-0.48v-0.07l0.09-0.36c0.12-0.51,0.22-1,0.28-1.44
			c0.07-0.45,0.1-0.92,0.1-1.42v-4c0-0.85-0.22-1.49-0.67-1.92c-0.45-0.43-1-0.65-1.65-0.65c-0.45,0-0.91,0.13-1.36,0.39
			c-0.46,0.26-0.92,0.65-1.41,1.18l0.05-0.52c0.54-0.86,1.13-1.52,1.76-1.97c0.63-0.45,1.34-0.67,2.15-0.67
			c0.99,0,1.81,0.32,2.48,0.95c0.67,0.64,1,1.61,1,2.91v4.3c0,0.5,0.04,0.97,0.11,1.42c0.08,0.45,0.17,0.93,0.3,1.44l0.07,0.36v0.07
			h-0.48H439.05z M445.8,117.77h-0.48v-0.07l0.07-0.36c0.12-0.51,0.22-1,0.29-1.44c0.08-0.45,0.11-0.92,0.11-1.42v-4
			c0-0.85-0.22-1.49-0.67-1.92s-0.99-0.65-1.62-0.65c-0.45,0-0.9,0.12-1.33,0.38s-0.92,0.65-1.47,1.19l0.04-0.55
			c0.55-0.86,1.13-1.51,1.76-1.95s1.34-0.66,2.12-0.66c0.98,0,1.81,0.32,2.49,0.95s1.01,1.61,1.01,2.91v4.3
			c0,0.5,0.03,0.97,0.1,1.42c0.07,0.45,0.16,0.93,0.28,1.44l0.09,0.36v0.07h-0.48H445.8z"/>
		<path d="M455.37,117.95c-0.97,0-1.86-0.23-2.68-0.69c-0.82-0.46-1.47-1.14-1.97-2.02c-0.49-0.89-0.74-1.93-0.74-3.12
			c0-1.15,0.23-2.17,0.69-3.04c0.46-0.88,1.1-1.56,1.91-2.03c0.81-0.48,1.73-0.72,2.76-0.72s1.91,0.24,2.65,0.72
			c0.74,0.48,1.29,1.12,1.67,1.94s0.57,1.75,0.57,2.79h-8.18l0.02-0.54l5.73-0.43c-0.03-1.14-0.25-2.03-0.66-2.69
			s-1.02-0.99-1.82-0.99c-0.91,0-1.6,0.41-2.07,1.23s-0.7,1.86-0.7,3.11c0.01,0.97,0.16,1.82,0.44,2.55
			c0.28,0.73,0.71,1.3,1.28,1.72c0.58,0.42,1.27,0.62,2.09,0.62c0.65,0,1.28-0.13,1.87-0.39c0.6-0.26,1.22-0.68,1.88-1.27l0.07,0.07
			c-0.24,0.59-0.6,1.13-1.07,1.62s-1.02,0.88-1.66,1.16C456.82,117.81,456.13,117.95,455.37,117.95z"/>
		<path d="M462.34,117.77h-0.48v-0.07l0.09-0.36c0.12-0.51,0.22-1,0.28-1.44c0.07-0.45,0.1-0.92,0.1-1.42v-4.73
			c0-0.5-0.03-0.97-0.1-1.42c-0.07-0.45-0.16-0.93-0.28-1.44l-0.09-0.36v-0.07h0.48h2.36v8.02c0,0.5,0.03,0.97,0.1,1.42
			c0.07,0.45,0.17,0.93,0.31,1.44l0.07,0.36v0.07h-0.48H462.34z M469.75,117.77h-0.5v-0.07l0.09-0.36c0.12-0.51,0.22-1,0.3-1.44
			c0.08-0.45,0.11-0.92,0.11-1.42v-4c0-0.86-0.22-1.52-0.67-1.96c-0.45-0.44-1-0.66-1.67-0.66c-1.01-0.01-2.04,0.52-3.09,1.61
			l0.05-0.57c0.48-0.83,1.06-1.47,1.74-1.92c0.67-0.45,1.44-0.67,2.28-0.67c1.04,0,1.92,0.32,2.64,0.97
			c0.71,0.64,1.07,1.61,1.07,2.9v4.3c0,0.5,0.04,0.97,0.11,1.42c0.08,0.45,0.17,0.93,0.29,1.44l0.09,0.36v0.07h-0.5H469.75z"/>
		<path d="M478.05,117.95c-0.86,0-1.54-0.29-2.02-0.86c-0.49-0.58-0.73-1.36-0.73-2.34v-7.43h-1.66v-0.68
			c0.95-0.32,1.72-0.77,2.29-1.36c0.58-0.59,1.07-1.31,1.48-2.16h0.23l0.02,11.34c0,0.64,0.14,1.11,0.42,1.43
			c0.28,0.32,0.69,0.48,1.22,0.48c0.67,0,1.34-0.22,2.02-0.66c-0.3,0.67-0.73,1.21-1.29,1.62
			C479.46,117.74,478.81,117.95,478.05,117.95z M474.75,107.32v-0.64l1.14-0.23h4.91v0.86H474.75z"/>
	</g>
</g>
</svg>
